<svg id="efjsjob3kg171" xmlns="http://www.w3.org/2000/svg" xmlns:xlink="http://www.w3.org/1999/xlink" viewBox="0 0 576 576" shape-rendering="geometricPrecision" text-rendering="geometricPrecision"><defs><filter id="efjsjob3kg173-filter" x="-400%" width="600%" y="-400%" height="600%"><feGaussianBlur id="efjsjob3kg173-filter-blur-0" stdDeviation="0,0" result="result"/></filter></defs><g id="efjsjob3kg172"><circle id="efjsjob3kg173" r="271.830000" transform="matrix(1 0 0 1 285.58999999999997 291.17000000000002)" opacity="0" paint-order="stroke fill markers" filter="url(#efjsjob3kg173-filter)" fill="none" stroke="rgb(0,0,0)" stroke-width="17" stroke-miterlimit="10" stroke-dashoffset="1707.960000" stroke-dasharray="1707.960000"/></g><g id="efjsjob3kg174"><path id="efjsjob3kg175" d="M500.550000,326.680000C496.690000,316.100000,490.640000,306.960000,481.120000,300.530000C472.110000,294.440000,463.320000,294.600000,454.960000,301.530000C451.110000,304.720000,447.780000,308.640000,444.640000,312.560000C441.960000,315.900000,439.870000,319.720000,437.520000,323.330000C434.950000,320.450000,433.420000,320.520000,431.400000,323.740000C430.390000,325.360000,429.460000,327.070000,428.740000,328.850000C426.550000,334.260000,424.560000,339.750000,422.350000,345.150000C420.620000,349.370000,418.920000,353.710000,415.340000,356.750000C407.020000,363.820000,397.080000,367.890000,386.960000,371.920000C386.660000,371.250000,386.400000,370.760000,386.210000,370.240000C381.550000,357.490000,373.130000,347.810000,361.720000,340.710000C348.730000,332.630000,333.610000,334.380000,323.170000,345.580000C314.020000,355.400000,310.060000,367.420000,310.200000,380.780000C310.340000,394.660000,319.390000,404.390000,333.200000,405.860000C342.870000,406.890000,352.410000,405.820000,361.920000,404.270000C366.880000,403.460000,371.800000,402.330000,377.210000,401.250000C378.030000,404.660000,379,407.920000,379.540000,411.250000C379.740000,412.460000,379.290000,414.180000,378.490000,415.090000C374.140000,419.980000,369.800000,424.920000,365.050000,429.420000C354.240000,439.690000,342.560000,448.900000,330.150000,457.210000C317.800000,465.470000,305.100000,473.020000,291.230000,478.460000C277.080000,484.020000,262.550000,487.430000,247.210000,485.360000C239.150000,484.270000,231.750000,481.470000,225.610000,475.940000C218.060000,469.140000,213.070000,460.700000,210.200000,451.010000C206,436.840000,205.930000,422.390000,207.190000,407.800000C207.630000,402.730000,209.860000,399.710000,213.950000,396.790000C230.420000,385,246.370000,372.540000,259.050000,356.460000C263.380000,350.970000,267.920000,345.590000,269.480000,338.530000C271.430000,329.710000,273.230000,320.870000,275,312.010000C275.250000,310.730000,275.750000,310.150000,276.940000,309.640000C283.090000,307.010000,289.260000,304.430000,295.260000,301.480000C300.610000,298.840000,305.730000,295.750000,311.120000,292.770000C311.430000,293.540000,311.760000,294.310000,312.060000,295.100000C315.150000,303.240000,318.570000,311.210000,323.720000,318.320000C330.210000,327.280000,338.940000,331.750000,350.030000,331.670000C357.420000,331.620000,364.640000,330.440000,371.750000,328.560000C390.380000,323.650000,407.430000,315.280000,423.580000,304.890000C428.930000,301.450000,433.540000,297.490000,435.510000,291.210000C435.940000,289.850000,436.740000,289.130000,438.010000,288.590000C448.530000,284.110000,458.400000,278.440000,467.720000,271.840000C477.480000,264.940000,486.520000,257.250000,493.830000,247.690000C494.860000,246.350000,495.800000,244.940000,496.940000,243.350000C499.040000,245.300000,500.990000,247.110000,502.940000,248.910000C508.110000,242.630000,507.940000,240.280000,502.030000,235.070000C501.980000,235.020000,501.930000,234.960000,501.870000,234.930000C499.960000,233.920000,499.920000,232.490000,500.440000,230.520000C501.850000,225.140000,501.180000,219.850000,498.550000,214.990000C496.230000,210.710000,493.420000,210.160000,489.380000,212.720000C485.490000,215.190000,483,218.740000,481.410000,223C479.120000,229.130000,479.900000,231.680000,485.260000,235.340000C487.780000,237.060000,490.350000,238.700000,493.300000,240.640000C477.330000,258.910000,458.180000,272.900000,437.200000,285.890000C442.150000,271.540000,442.150000,257.650000,438.480000,243.670000C434.830000,229.780000,428.870000,217.150000,418.810000,206.290000C415.770000,214.890000,412.910000,223.150000,409.880000,231.340000C409.250000,233.040000,409.470000,234.130000,410.490000,235.560000C418.720000,247.100000,425.500000,259.400000,429.660000,273.050000C430.240000,274.960000,429.880000,275.950000,428.220000,277.040000C406.180000,291.560000,382.230000,300.740000,355.830000,303.040000C350.810000,303.480000,345.700000,303.900000,340.980000,301.350000C333.440000,297.270000,328.960000,290.470000,324.740000,283.240000C327.610000,281,330.290000,278.760000,333.120000,276.730000C336.190000,274.540000,338.450000,271.730000,339.740000,268.270000C342.320000,261.340000,344.920000,254.410000,347.050000,247.340000C348.350000,243.010000,349.390000,238.440000,349.480000,233.950000C349.690000,223.010000,346.870000,212.660000,341.590000,203.050000C337.550000,195.700000,332.020000,189.780000,324.350000,186.100000C319.130000,183.600000,314.210000,184.200000,309.840000,187.980000C308.240000,189.360000,306.770000,190.980000,305.550000,192.710000C300.360000,200.050000,297.660000,208.450000,295.710000,217.110000C294.600000,222.030000,293.150000,227.050000,294.340000,232.100000C297.250000,244.490000,300.420000,256.820000,303.590000,269.150000C303.990000,270.700000,303.810000,271.440000,302.310000,272.080000C294.650000,275.340000,287.050000,278.740000,279.380000,281.960000C276.520000,283.160000,273.520000,283.990000,270.540000,285.010000C270.170000,284.240000,269.890000,283.740000,269.700000,283.220000C265.100000,270.440000,256.720000,260.730000,245.300000,253.630000C231.220000,244.870000,214.780000,247.740000,204.660000,260.860000C196.860000,270.970000,193.220000,282.560000,193.860000,295.390000C194.180000,301.750000,196.410000,307.350000,200.820000,311.960000C202.310000,313.520000,204.130000,314.780000,205.390000,315.820000C201.630000,324.720000,197.850000,333.390000,194.330000,342.170000C193.180000,345.040000,192.390000,348.150000,192.010000,351.210000C191.490000,355.440000,192.380000,359.480000,195.600000,362.610000C198.890000,365.810000,202.350000,365.470000,204.200000,361.310000C205.760000,357.790000,206.480000,353.880000,207.480000,350.120000C207.630000,349.560000,207.230000,348.860000,207.090000,348.220000C205.620000,349.780000,204.630000,351.390000,203.780000,353.070000C202.500000,355.580000,201.220000,355.880000,199.190000,353.830000C198.410000,353.050000,197.760000,352.030000,197.350000,351.010000C196.120000,347.950000,196.300000,344.860000,197.590000,341.860000C201.120000,333.640000,204.690000,325.430000,208.280000,317.110000C217.620000,320.560000,227.500000,319.930000,237.330000,318.620000C244.440000,317.670000,251.490000,316.230000,258.550000,314.870000C260.090000,314.570000,260.770000,314.900000,261.160000,316.360000C261.760000,318.630000,262.570000,320.840000,263.060000,323.130000C263.420000,324.830000,263.780000,326.650000,262.380000,328.200000C259.080000,331.840000,255.990000,335.700000,252.510000,339.140000C240.370000,351.140000,227.150000,361.830000,212.950000,371.340000C199.830000,380.130000,186.280000,388.040000,171.400000,393.490000C159.940000,397.690000,148.190000,400.390000,135.880000,399.670000C126.520000,399.130000,117.700000,396.780000,110.350000,390.640000C100.670000,382.560000,95.270000,371.910000,92.510000,359.780000C89.570000,346.840000,89.600000,333.800000,90.880000,320.660000C92.080000,308.320000,96.600000,297.010000,101.070000,285.610000C108.120000,288.740000,115.690000,289.840000,123.450000,289.860000C133.530000,289.890000,143.240000,287.800000,152.720000,284.490000C170.370000,278.330000,186.340000,268.950000,201.230000,257.880000C221.240000,243.010000,240.800000,227.530000,260.580000,212.360000C273.690000,202.310000,286.620000,191.980000,300.080000,182.420000C312.490000,173.610000,325.950000,166.590000,340.960000,163.070000C355.100000,159.740000,367.740000,162.330000,378.020000,173.060000C381.190000,176.370000,383.730000,180.280000,386.640000,184.020000C386.950000,183.300000,387.550000,182.390000,387.740000,181.400000C389.080000,174.560000,390.180000,167.680000,391.670000,160.880000C392.500000,157.100000,391.330000,154,389.400000,151.010000C384.890000,144,378.700000,139.060000,370.820000,136.310000C361.830000,133.180000,352.860000,134.050000,343.910000,136.530000C329.980000,140.380000,317.330000,147.020000,305.080000,154.490000C286.040000,166.090000,268.700000,179.980000,251.620000,194.230000C231.240000,211.220000,210.090000,227.160000,187.050000,240.450000C173.630000,248.190000,159.780000,254.970000,144.690000,258.870000C135.150000,261.340000,125.490000,262.580000,115.730000,260.300000C103.580000,257.460000,94.680000,250.800000,91.070000,238.330000C89.130000,231.630000,89.150000,224.790000,90.130000,217.980000C92.370000,202.350000,97.980000,187.830000,105.540000,174.100000C109.550000,166.810000,114.380000,159.980000,118.770000,152.900000C123.610000,145.090000,128.380000,137.240000,133.140000,129.390000C133.650000,128.560000,133.860000,127.550000,134.210000,126.620000C134,126.480000,133.800000,126.340000,133.590000,126.210000C132.470000,127.230000,131.260000,128.180000,130.230000,129.290000C110.930000,150.190000,95.850000,173.770000,85.740000,200.390000C79.720000,216.240000,76.020000,232.580000,77.980000,249.720000C79.080000,259.320000,82.080000,268.260000,88.520000,275.630000C91.440000,278.970000,95.010000,281.720000,98.100000,284.570000C96.460000,287.660000,94.370000,290.850000,92.980000,294.310000C83.890000,316.990000,79.050000,340.460000,80.490000,365.010000C81.260000,378.160000,84.570000,390.560000,91.650000,401.810000C97.620000,411.300000,105.030000,419.210000,115.760000,423.340000C128.570000,428.270000,141.700000,428,154.890000,425.300000C169.560000,422.290000,183.010000,416.200000,195.890000,408.730000C197.590000,407.750000,199.280000,406.750000,201.080000,405.700000C201.150000,406.160000,201.230000,406.380000,201.200000,406.570000C201.110000,407.130000,200.980000,407.690000,200.860000,408.240000C197.460000,423.910000,195.450000,439.660000,197.290000,455.740000C198.820000,469.090000,203.010000,481.360000,210.970000,492.300000C219.220000,503.660000,230.070000,510.540000,244.080000,512.500000C255.880000,514.150000,267.380000,512.770000,278.730000,509.560000C295,504.960000,309.830000,497.270000,323.710000,487.780000C342.380000,475.010000,360.370000,461.410000,374.900000,443.760000C380.490000,436.970000,385.390000,429.930000,387.110000,421.100000C388.570000,413.630000,390.110000,406.180000,391.490000,398.700000C391.720000,397.470000,392.120000,396.900000,393.290000,396.490000C396.040000,395.520000,398.780000,394.470000,401.430000,393.270000C411.320000,388.780000,418.910000,382.070000,422.080000,371.280000C423.680000,365.820000,425.140000,360.330000,426.680000,354.850000C427.050000,353.540000,427.460000,352.250000,427.970000,350.570000C432.260000,357.520000,438.270000,361.390000,445.410000,363.580000C452.890000,365.870000,460.370000,368.210000,467.950000,370.120000C475.810000,372.110000,483.780000,373.660000,491.730000,375.310000C494.670000,375.920000,495.140000,375.600000,496.340000,372.880000C498.840000,367.220000,501.210000,361.490000,503.780000,355.870000C505.640000,351.800000,506.060000,347.550000,505.140000,343.330000C503.900000,337.690000,502.520000,332.060000,500.550000,326.680000ZM328.310000,377.120000C327.690000,376.970000,327.060000,376.810000,326.490000,376.540000C323.190000,374.940000,322.820000,373.270000,325.090000,370.390000C330.930000,362.930000,339.670000,360.910000,348.190000,365.080000C353.790000,367.820000,358.190000,372,362.530000,377.060000C350.800000,378.660000,339.560000,379.810000,328.310000,377.120000ZM487.270000,225.450000C486.190000,224.720000,486.110000,223.660000,487.110000,222.990000C488.460000,222.080000,490.090000,220.870000,491.490000,220.990000C492.540000,221.080000,493.780000,222.930000,494.310000,224.240000C495.020000,226.020000,495.120000,228.040000,495.490000,229.960000C495.210000,230.110000,494.930000,230.250000,494.660000,230.400000C492.190000,228.750000,489.720000,227.120000,487.270000,225.450000ZM304.750000,216.800000C305.840000,215.810000,307.150000,215.010000,308.460000,214.320000C312.170000,212.380000,315.770000,212.460000,319.300000,214.930000C325.730000,219.440000,329.690000,225.830000,332.660000,232.830000C334.760000,237.790000,336.210000,243.020000,337.970000,248.120000C338.430000,249.440000,338.140000,250.280000,336.870000,251.100000C330.180000,255.420000,323.560000,259.850000,316.270000,264.670000C313.490000,254.760000,310.820000,245.420000,308.260000,236.040000C306.730000,230.420000,305.340000,224.760000,304,219.090000C303.840000,218.390000,304.220000,217.270000,304.750000,216.800000ZM212.250000,290.330000C211.700000,290.200000,211.140000,290.070000,210.610000,289.860000C206.810000,288.360000,206.280000,286.450000,208.750000,283.280000C214.070000,276.440000,221.730000,274.280000,229.860000,277.300000C235.140000,279.270000,243.040000,285.600000,245.730000,290.180000C234.430000,291.730000,223.350000,292.880000,212.250000,290.330000ZM480.750000,343.890000C474.660000,342.310000,468.510000,340.900000,462.490000,339.080000C457.890000,337.680000,453.340000,336,448.980000,333.990000C445.030000,332.160000,445.110000,331.580000,448.110000,328.460000C453.890000,322.450000,460.250000,321.630000,467.090000,326C467.390000,326.190000,467.670000,326.410000,467.960000,326.620000C473.950000,330.940000,477.830000,336.900000,481.080000,343.330000C480.970000,343.510000,480.860000,343.700000,480.750000,343.890000Z" opacity="0" fill="rgb(0,0,0)" stroke="none" stroke-width="1"/></g><g id="efjsjob3kg176"><path id="efjsjob3kg177" d="M132.330000,357.400000C126.820000,361.070000,121.260000,364.670000,115.790000,368.410000C114.660000,369.180000,113.820000,370.380000,112.850000,371.390000C113,371.640000,113.160000,371.890000,113.310000,372.140000C114.540000,371.980000,115.810000,371.980000,116.980000,371.620000C127.170000,368.470000,137.330000,365.230000,147.510000,362.060000C153.710000,360.130000,158.590000,356.410000,162.600000,351.350000C169.940000,342.070000,175.620000,331.820000,180.630000,321.160000C182.840000,316.460000,182.770000,316.410000,177.630000,315.010000C165.420000,311.700000,152.970000,310.800000,140.380000,311.190000C135.590000,311.340000,130.870000,311.870000,126.360000,313.620000C124.460000,314.360000,123.200000,315.540000,122.540000,317.590000C120.450000,324.090000,118.200000,330.540000,116.030000,337.010000C115.430000,338.800000,114.850000,340.600000,114.270000,342.390000C114.430000,342.580000,114.580000,342.770000,114.740000,342.950000C115.940000,342.360000,117.120000,341.730000,118.330000,341.180000C120.570000,340.170000,122.740000,338.810000,125.100000,338.280000C132.710000,336.580000,140.410000,337.220000,148.070000,338.030000C151.560000,338.400000,155.040000,338.940000,159.030000,339.460000C158.050000,340.200000,157.570000,340.600000,157.050000,340.940000C148.810000,346.430000,140.580000,351.920000,132.330000,357.400000Z" opacity="0" fill="rgb(0,0,0)" stroke="none" stroke-width="1"/></g><g id="efjsjob3kg178"><path id="efjsjob3kg179" d="M401.670000,186.600000C409.160000,191.530000,416.660000,196.440000,424.120000,201.410000C426.170000,202.780000,426.580000,202.780000,427.810000,200.520000C429.580000,197.270000,431.270000,193.980000,433.050000,190.730000C435.080000,187.020000,437.160000,183.350000,439.200000,179.680000C440.710000,180.780000,442.010000,181.770000,443.360000,182.690000C449.950000,187.180000,456.550000,191.640000,463.140000,196.130000C465.790000,197.940000,465.950000,197.930000,467.510000,195.050000C470.840000,188.930000,474.180000,182.800000,477.520000,176.680000C479.120000,173.740000,479.070000,173.490000,476.220000,171.560000C469.090000,166.720000,461.960000,161.910000,454.830000,157.070000C452.260000,155.320000,452.260000,155.300000,450.660000,158.080000C446.830000,164.730000,443.020000,171.390000,439.140000,178.150000C437.970000,177.330000,437,176.630000,436,175.950000C428.930000,171.160000,421.820000,166.430000,414.810000,161.550000C413.280000,160.490000,412.580000,160.670000,411.710000,162.200000C408,168.690000,404.210000,175.130000,400.480000,181.600000C398.720000,184.610000,398.760000,184.680000,401.670000,186.600000Z" opacity="0" fill="rgb(0,0,0)" stroke="none" stroke-width="1"/></g><g id="efjsjob3kg1710"><path id="efjsjob3kg1711" d="M321.670000,94.580000C330.510000,100.710000,339.250000,106.780000,348.060000,112.890000C353.290000,105.250000,358.390000,97.810000,363.570000,90.240000C354.810000,84.140000,346.230000,78.170000,337.500000,72.080000C332.170000,79.450000,326.930000,86.700000,321.600000,94.090000C313,88.110000,304.530000,82.220000,295.770000,76.130000C290.380000,83.610000,285.100000,90.920000,279.700000,98.410000C288.620000,104.610000,297.420000,110.730000,306.330000,116.930000C311.480000,109.420000,316.510000,102.090000,321.670000,94.580000Z" opacity="0" fill="rgb(0,0,0)" stroke="none" stroke-width="1"/></g><g id="efjsjob3kg1712"><path id="efjsjob3kg1713" d="M223.690000,148.100000C186.390000,161.390000,150.560000,177.870000,116.160000,197.480000C115.730000,197.720000,115.080000,197.950000,114.960000,198.320000C113.880000,201.620000,112.890000,204.950000,111.730000,208.750000C112.720000,208.210000,113.160000,207.980000,113.590000,207.740000C132.200000,197.230000,151.210000,187.510000,170.770000,178.920000C187.500000,171.570000,204.490000,164.820000,221.350000,157.760000C221.990000,157.490000,222.750000,156.940000,222.990000,156.340000C224.080000,153.500000,225.010000,150.590000,226.140000,147.290000C225.020000,147.660000,224.350000,147.860000,223.690000,148.100000Z" opacity="0" fill="rgb(0,0,0)" stroke="none" stroke-width="1"/></g><g id="efjsjob3kg1714"><path id="efjsjob3kg1715" d="M301.010000,447.010000C316.690000,440.110000,332.650000,433.830000,348.480000,427.250000C349.350000,426.890000,350.540000,426.440000,350.830000,425.720000C352.020000,422.850000,352.910000,419.850000,354.060000,416.470000C352.840000,416.870000,352.100000,417.090000,351.370000,417.360000C344.510000,419.920000,337.600000,422.390000,330.790000,425.090000C300.910000,436.920000,271.960000,450.690000,244.070000,466.680000C243.590000,466.960000,242.930000,467.270000,242.780000,467.710000C241.740000,470.910000,240.810000,474.160000,239.710000,477.840000C240.520000,477.400000,240.820000,477.250000,241.120000,477.080000C260.630000,466.150000,280.550000,456.020000,301.010000,447.010000Z" opacity="0" fill="rgb(0,0,0)" stroke="none" stroke-width="1"/></g><g id="efjsjob3kg1716"><path id="efjsjob3kg1717" d="M421.200000,444.100000C418.590000,442.460000,416.330000,442.800000,414.450000,445.290000C413,447.200000,411.960000,449.420000,410.750000,451.500000C410.430000,452.050000,410.320000,452.970000,409.870000,453.160000C407.220000,454.280000,407.160000,456.840000,406.590000,459.010000C405.160000,464.500000,402.530000,469.240000,397.870000,472.530000C391.420000,477.080000,384.960000,481.640000,378.240000,485.780000C364.450000,494.290000,349.360000,500.190000,334.630000,506.810000C330.760000,508.550000,326.950000,510.410000,323.110000,512.210000C323.210000,512.500000,323.310000,512.790000,323.410000,513.080000C323.980000,512.980000,324.550000,512.900000,325.110000,512.760000C332.090000,511.060000,339.070000,509.380000,346.040000,507.650000C351.150000,506.390000,356.580000,505.820000,361.270000,503.640000C373.670000,497.890000,385.620000,491.250000,396.790000,483.260000C402,479.530000,405.110000,474.620000,406.310000,468.390000C406.600000,466.890000,407.070000,465.420000,407.460000,463.910000C413.360000,466.880000,419.540000,467.280000,425.700000,467.800000C426.170000,467.840000,427.020000,467.540000,427.120000,467.230000C428.190000,463.800000,430.220000,460.230000,429.890000,456.910000C429.370000,451.500000,425.960000,447.100000,421.200000,444.100000ZM413,455.090000C414.290000,452.200000,416.170000,451.600000,418.620000,453.330000C419.250000,453.780000,419.830000,454.300000,420.380000,454.850000C421.120000,455.580000,421.820000,456.370000,422.590000,457.200000C419.740000,457.840000,414.860000,456.730000,413,455.090000Z" opacity="0" fill="rgb(0,0,0)" stroke="none" stroke-width="1"/></g><g id="efjsjob3kg1718"><path id="efjsjob3kg1719" d="M398.550000,194.750000C398.170000,192.610000,397.590000,190.510000,397.110000,188.390000C396.850000,188.360000,396.580000,188.320000,396.320000,188.290000C395.610000,191.700000,394.550000,195.090000,394.320000,198.540000C394.170000,200.860000,394.980000,203.340000,395.760000,205.610000C397.610000,210.980000,399.640000,216.290000,401.750000,221.570000C402.350000,223.060000,402.060000,223.920000,400.900000,224.850000C397.670000,227.410000,392.690000,227.300000,389.860000,224.020000C388.160000,222.050000,386.810000,219.510000,386.140000,217C385.040000,212.900000,384.630000,208.610000,383.910000,204.400000C382.990000,199.030000,381.270000,193.950000,378.120000,188.780000C377.430000,190.860000,377,192.520000,376.340000,194.080000C375.240000,196.700000,375.310000,199.080000,376.440000,201.800000C378.470000,206.670000,379.820000,211.740000,379.210000,217.180000C378.450000,223.950000,374.920000,228.960000,369.510000,230.440000C365.090000,231.650000,362.320000,230.370000,361.240000,225.920000C360.450000,222.650000,360.330000,219.180000,360.230000,215.790000C360.100000,211.670000,360.420000,207.540000,360.300000,203.420000C360.240000,201.330000,359.620000,199.260000,359.260000,197.180000C357.480000,200.020000,356.240000,202.810000,355.050000,205.630000C354.870000,206.060000,354.820000,206.620000,354.920000,207.070000C356.040000,212.150000,355.830000,217.250000,355.350000,222.370000C355.020000,225.930000,355.120000,229.470000,356.440000,232.900000C358.560000,238.400000,364.170000,241.430000,369.890000,239.950000C375.900000,238.400000,379.060000,234.030000,380.800000,228.430000C381.280000,226.890000,381.490000,225.260000,381.750000,224.040000C383.330000,226.720000,384.670000,229.770000,386.700000,232.250000C391.290000,237.850000,399.020000,237.390000,402.680000,231.190000C406.500000,224.710000,407.650000,217.730000,404.230000,210.580000C401.830000,205.460000,399.540000,200.350000,398.550000,194.750000Z" opacity="0" fill="rgb(0,0,0)" stroke="none" stroke-width="1"/></g><g id="efjsjob3kg1720"><path id="efjsjob3kg1721" d="M413.280000,154.180000C413.820000,154.520000,414.330000,154.910000,414.860000,155.270000C421.790000,160,428.730000,164.720000,435.660000,169.450000C437.880000,170.970000,438.280000,170.920000,439.530000,168.620000C443.100000,162.070000,446.660000,155.500000,450.210000,148.940000C450.480000,148.450000,450.710000,147.930000,450.960000,147.430000C451.200000,147.150000,451.450000,146.870000,451.690000,146.590000C450.720000,146.010000,449.720000,145.480000,448.780000,144.860000C441.460000,139.940000,434.150000,135,426.840000,130.050000C424.540000,128.500000,424.510000,128.460000,423.090000,130.940000C419.470000,137.230000,415.970000,143.580000,412.250000,149.810000C411.040000,151.830000,411.500000,153.050000,413.280000,154.180000Z" opacity="0" fill="rgb(0,0,0)" stroke="none" stroke-width="1"/></g><g id="efjsjob3kg1722"><path id="efjsjob3kg1723" d="M130.300000,223.940000C139.120000,230.470000,147.680000,236.810000,156.370000,243.240000C161.810000,235.790000,167.130000,228.510000,172.560000,221.080000C164.010000,214.740000,155.570000,208.480000,147.030000,202.140000C141.450000,209.420000,135.950000,216.580000,130.300000,223.940000Z" opacity="0" fill="rgb(0,0,0)" stroke="none" stroke-width="1"/></g><g id="efjsjob3kg1724"><path id="efjsjob3kg1725" d="M201.130000,150.370000C201.360000,150.650000,201.590000,150.940000,201.810000,151.220000C213.910000,146.010000,224.740000,138.680000,235.010000,130.470000C245.400000,122.160000,254.690000,112.800000,261.590000,101.110000C263.870000,102.990000,265.920000,104.690000,267.990000,106.390000C272.700000,98.880000,272.520000,97.550000,265.750000,92.300000C264.320000,91.190000,263.980000,90.180000,264.290000,88.370000C265.300000,82.570000,264.550000,76.960000,261.080000,72.040000C258.680000,68.640000,256.070000,68.370000,252.650000,70.710000C248.580000,73.500000,246.160000,77.420000,244.780000,82.060000C243.010000,88.030000,244.010000,90.590000,249.400000,93.770000C252.020000,95.320000,254.670000,96.830000,257.540000,98.490000C256.330000,100.240000,255.360000,102.010000,254.060000,103.470000C245.430000,113.180000,236.390000,122.480000,226.200000,130.570000C218.950000,136.330000,211.450000,141.770000,204.100000,147.400000C203.010000,148.260000,202.120000,149.370000,201.130000,150.370000ZM251.100000,84.010000C249.780000,83.220000,249.720000,82.240000,250.790000,81.060000C253.710000,77.840000,256.380000,78.220000,257.950000,82.280000C258.640000,84.070000,258.900000,86.030000,259.350000,87.920000C259.100000,88.060000,258.840000,88.200000,258.590000,88.340000C256.090000,86.900000,253.570000,85.490000,251.100000,84.010000Z" opacity="0" fill="rgb(0,0,0)" stroke="none" stroke-width="1"/></g><g id="efjsjob3kg1726"><path id="efjsjob3kg1727" d="M262.660000,415.810000C262.760000,415.600000,263.020000,415.040000,263.330000,414.370000C267.010000,417.960000,269.860000,422.030000,271.960000,426.540000C274.170000,431.280000,276,436.200000,278.060000,441.010000C278.300000,441.580000,278.910000,442.370000,279.370000,442.380000C279.910000,442.390000,280.620000,441.780000,281,441.260000C281.440000,440.650000,281.740000,439.860000,281.860000,439.110000C282.350000,436.040000,282.910000,432.960000,283.160000,429.870000C283.700000,423.090000,283.920000,416.280000,284.570000,409.510000C284.860000,406.520000,285.610000,403.510000,286.630000,400.680000C287.600000,397.980000,289.670000,397.510000,292.110000,399.070000C293.110000,399.700000,294.010000,400.560000,294.800000,401.450000C295.760000,402.530000,296.560000,403.750000,297.670000,405.250000C298.170000,403.250000,298.630000,401.630000,298.980000,399.980000C300.290000,393.830000,299.790000,392.760000,294.250000,389.600000C293.820000,389.350000,293.380000,389.130000,292.930000,388.920000C289.120000,387.220000,286.830000,387.950000,284.850000,391.680000C282.340000,396.400000,281.480000,401.590000,281.040000,406.820000C280.600000,412.110000,280.480000,417.430000,280.160000,422.740000C280.050000,424.610000,279.780000,426.460000,279.580000,428.320000C279.420000,428.310000,279.260000,428.310000,279.090000,428.300000C278.870000,427.650000,278.640000,427.010000,278.420000,426.360000C275.850000,418.750000,272.140000,411.790000,266.490000,406C262.530000,401.940000,258.010000,398.700000,252.530000,396.990000C249.530000,396.060000,248.650000,396.500000,248.060000,399.590000C247.520000,402.430000,247.430000,405.350000,247.060000,408.220000C246.820000,410.160000,247.830000,411.130000,249.490000,411.660000C253.860000,413.050000,258.220000,414.410000,262.660000,415.810000Z" opacity="0" fill="rgb(0,0,0)" stroke="none" stroke-width="1"/></g><g id="efjsjob3kg1728"><path id="efjsjob3kg1729" d="M164.210000,117.880000C168.670000,119.460000,173.200000,120.830000,177.850000,122.320000C177.950000,122.060000,178.160000,121.550000,178.440000,120.880000C182.190000,124.420000,184.950000,128.400000,187.010000,132.800000C189.300000,137.690000,191.220000,142.750000,193.350000,147.720000C193.580000,148.250000,194.120000,149.080000,194.450000,149.050000C195.040000,149,195.790000,148.520000,196.100000,148C196.660000,147.040000,197.200000,145.940000,197.310000,144.850000C197.970000,138.270000,198.410000,131.660000,199.110000,125.090000C199.700000,119.520000,200.200000,113.900000,201.380000,108.430000C202.320000,104.060000,205.520000,103.420000,208.840000,106.510000C209.970000,107.560000,210.840000,108.910000,211.820000,110.120000C212.150000,110.530000,212.470000,110.950000,213,111.630000C213.540000,109.580000,214,107.870000,214.420000,106.160000C215.790000,100.570000,215.360000,99.540000,210.440000,96.480000C209.840000,96.100000,209.230000,95.730000,208.590000,95.420000C204.560000,93.450000,202.080000,94.260000,200,98.270000C199.450000,99.340000,198.840000,100.450000,198.630000,101.610000C197.670000,107.060000,196.610000,112.500000,196.020000,117.990000C195.430000,123.560000,195.350000,129.190000,195.010000,135.310000C194.400000,134.740000,194.250000,134.660000,194.200000,134.550000C194.070000,134.220000,193.970000,133.880000,193.860000,133.540000C191.760000,127.130000,188.890000,121.120000,184.640000,115.840000C179.900000,109.960000,174.310000,105.290000,166.860000,103.170000C164.860000,102.600000,163.700000,103.260000,163.420000,105.120000C162.890000,108.620000,162.480000,112.150000,162.310000,115.690000C162.280000,116.410000,163.390000,117.590000,164.210000,117.880000Z" opacity="0" fill="rgb(0,0,0)" stroke="none" stroke-width="1"/></g><g id="efjsjob3kg1730"><path id="efjsjob3kg1731" d="M469.790000,390.280000C467.420000,389.400000,465.600000,389.810000,464.080000,391.800000C462.970000,393.250000,461.990000,394.860000,461.220000,396.520000C458.130000,403.200000,457.130000,410.400000,456.130000,417.600000C455.600000,421.410000,454.800000,425.170000,454.120000,428.960000C453.930000,428.940000,453.740000,428.930000,453.550000,428.910000C453.440000,428.530000,453.290000,428.150000,453.210000,427.760000C451.780000,420.790000,449.400000,414.200000,445.420000,408.260000C441.590000,402.550000,436.900000,397.750000,430.500000,394.910000C427.420000,393.540000,426.480000,393.920000,425.470000,397.160000C424.730000,399.530000,424.270000,401.990000,423.820000,404.440000C423.230000,407.650000,423.800000,408.320000,426.760000,409.620000C430.520000,411.270000,434.170000,413.170000,437.870000,414.950000C437.980000,415,438.130000,414.960000,438.360000,414.960000C438.580000,414.530000,438.820000,414.050000,439.200000,413.290000C442.700000,417.520000,445.080000,421.980000,446.720000,426.770000C448.350000,431.540000,449.600000,436.450000,451.080000,441.270000C451.290000,441.940000,451.840000,442.510000,452.230000,443.130000C452.920000,442.690000,453.860000,442.390000,454.240000,441.760000C454.960000,440.560000,455.570000,439.210000,455.850000,437.840000C457.040000,431.990000,458,426.090000,459.230000,420.250000C460.400000,414.690000,461.470000,409.080000,463.190000,403.690000C464.620000,399.200000,468.170000,398.860000,471.180000,402.590000C472.400000,404.100000,473.330000,405.840000,474.640000,407.870000C475.810000,404.400000,476.910000,401.260000,477.910000,398.090000C478.030000,397.700000,477.830000,397.090000,477.570000,396.720000C475.540000,393.900000,473.120000,391.520000,469.790000,390.280000Z" opacity="0" fill="rgb(0,0,0)" stroke="none" stroke-width="1"/></g><g id="efjsjob3kg1732"><path id="efjsjob3kg1733" d="M346.700000,283C345.850000,283.410000,344.740000,284.030000,344.470000,284.800000C343.440000,287.790000,342.710000,290.890000,341.780000,294.270000C342.450000,294.010000,342.770000,293.920000,343.060000,293.770000C365.940000,281.560000,389.520000,270.970000,414.210000,262.940000C414.750000,262.770000,415.400000,262.330000,415.610000,261.850000C416.840000,258.990000,417.960000,256.080000,419.280000,252.770000C418.320000,253.030000,417.830000,253.120000,417.380000,253.290000C405.240000,257.740000,392.930000,261.790000,381.020000,266.780000C369.360000,271.670000,358.110000,277.520000,346.700000,283Z" opacity="0" fill="rgb(0,0,0)" stroke="none" stroke-width="1"/></g><g id="efjsjob3kg1734"><path id="efjsjob3kg1735" d="M187.280000,475.140000C185.080000,475.250000,182.890000,475.710000,180.850000,475.990000C182.050000,472.650000,183.280000,469.240000,184.460000,465.970000C185.950000,466.680000,187.380000,467.360000,188.810000,468.040000C186.460000,464.620000,185.160000,461.390000,188.240000,457.230000C185.410000,458.340000,183.610000,459.480000,182.930000,461.950000C182.160000,464.760000,181.350000,467.560000,180.480000,470.350000C179.950000,472.040000,179.270000,473.690000,178.660000,475.360000C178.380000,475.320000,178.090000,475.290000,177.810000,475.250000C177.740000,474.440000,177.480000,473.600000,177.630000,472.840000C178.070000,470.660000,177.540000,468.730000,175.800000,467.490000C174.210000,466.370000,172.370000,465.370000,170.500000,464.940000C167.890000,464.340000,165.150000,464.210000,162.450000,464.070000C159.460000,463.910000,156.450000,464.110000,153.480000,463.840000C152.380000,463.740000,151,462.940000,150.440000,462.040000C150.090000,461.480000,150.760000,459.750000,151.480000,459.180000C154.360000,456.870000,157.910000,456.850000,161.420000,456.650000C163.440000,456.530000,164.220000,458.100000,165.430000,459.090000C166.530000,459.990000,167.690000,460.870000,168.590000,461.960000C170.780000,464.600000,173.430000,463.810000,176.490000,463.290000C175.610000,462.570000,174.970000,462.140000,174.440000,461.600000C169.940000,457.060000,165.260000,452.670000,161.030000,447.890000C157.980000,444.450000,156.050000,440.230000,155.890000,435.480000C155.720000,430.670000,157.930000,429.180000,162.080000,431.520000C164.710000,433,167.220000,434.890000,169.370000,437.010000C174.810000,442.370000,178.540000,448.950000,181.910000,455.740000C182.230000,456.380000,182.570000,457,182.910000,457.640000C181.540000,449.500000,177.940000,442.510000,172.330000,436.590000C169.330000,433.440000,166.270000,430.320000,161.800000,429.240000C156.770000,428.030000,152.430000,431.180000,152.040000,436.330000C151.780000,439.730000,152.780000,442.880000,154.510000,445.690000C156.570000,449.040000,158.970000,452.180000,161.260000,455.470000C159.220000,455.750000,157.100000,455.940000,155.030000,456.340000C151.880000,456.940000,148.980000,458.090000,147.150000,460.940000C145.600000,463.350000,146.620000,465.940000,149.390000,466.550000C150.620000,466.820000,151.930000,466.820000,153.200000,466.760000C158.910000,466.480000,164.610000,466.180000,170.110000,468.220000C172.700000,469.180000,173.590000,470.610000,173.570000,473.200000C173.560000,474.810000,173.820000,476.420000,173.990000,478.270000C172.230000,477.780000,170.260000,477.230000,168.300000,476.690000L168.310000,476.690000C168.310000,476.690000,168.310000,476.690000,168.310000,476.680000C168.310000,476.680000,168.310000,476.680000,168.310000,476.680000C161.220000,473.490000,154.130000,470.310000,147.100000,467.150000C153.160000,471.600000,159.260000,476.160000,166.430000,478.980000C169.270000,480.100000,172.160000,480.600000,175.190000,479.580000C176.860000,479.020000,178.610000,478.670000,180.310000,478.180000C181.530000,477.830000,182.220000,478.300000,182.530000,479.460000C182.980000,481.150000,183.430000,482.850000,183.860000,484.510000C187.430000,484.440000,189.670000,482.950000,190.790000,480C192.070000,476.480000,191.030000,474.940000,187.280000,475.140000Z" opacity="0" fill="rgb(0,0,0)" stroke="none" stroke-width="1"/></g><g id="efjsjob3kg1736"><path id="efjsjob3kg1737" d="M208.940000,167.550000C208.230000,168.880000,207.570000,169.810000,207.220000,170.840000C205.040000,177.300000,202.580000,183.690000,200.930000,190.280000C200.010000,193.970000,200.070000,198.040000,200.410000,201.870000C200.820000,206.590000,203.860000,208.760000,208.620000,208.600000C217.070000,208.310000,224.070000,201.750000,225.220000,193.380000C225.930000,188.260000,224.190000,184.370000,220,181.680000C217.390000,180,214.540000,178.630000,211.640000,177.530000C209.640000,176.770000,209.050000,175.990000,209.600000,173.850000C210.070000,171.970000,210.770000,169.850000,208.940000,167.550000ZM219.660000,194.440000C216.200000,197.240000,212.500000,199.020000,208.140000,199.040000C205.460000,199.050000,204.430000,198.080000,204.570000,195.410000C204.740000,192.260000,205.280000,189.130000,205.700000,185.720000C211.510000,187.310000,216.380000,189.420000,219.660000,194.440000Z" opacity="0" fill="rgb(0,0,0)" stroke="none" stroke-width="1"/></g><g id="efjsjob3kg1738"><path id="efjsjob3kg1739" d="M297.230000,354.790000C296.900000,356.120000,296.270000,356.790000,294.990000,356.900000C292.690000,357.100000,291.270000,355.730000,290.180000,353.980000C287.260000,349.270000,286.900000,344.150000,288.540000,339.030000C291.010000,331.360000,293.840000,323.800000,296.490000,316.190000C296.920000,314.960000,297.200000,313.680000,297.550000,312.420000C297.280000,312.270000,297.010000,312.120000,296.740000,311.980000C296.050000,312.890000,295.140000,313.700000,294.700000,314.710000C292.450000,319.900000,290.200000,325.100000,288.170000,330.380000C285.300000,337.820000,283.060000,345.420000,284,353.570000C284.570000,358.560000,286.260000,362.970000,290.840000,365.660000C294.020000,367.530000,296.680000,366.870000,298.300000,363.580000C299.380000,361.390000,300.110000,358.960000,300.550000,356.550000C301.100000,353.520000,301.450000,350.400000,299.820000,347.340000C298.770000,349.770000,297.860000,352.240000,297.230000,354.790000Z" opacity="0" fill="rgb(0,0,0)" stroke="none" stroke-width="1"/></g><g id="efjsjob3kg1740"><path id="efjsjob3kg1741" d="M282.080000,213.180000C282.640000,211.810000,282.730000,210.260000,283.040000,208.790000C282.790000,208.680000,282.530000,208.570000,282.280000,208.460000C281.590000,209.360000,280.690000,210.170000,280.240000,211.180000C276.210000,220.360000,272.160000,229.530000,268.350000,238.800000C267.370000,241.180000,266.910000,243.900000,266.800000,246.480000C266.620000,250.820000,267.750000,254.850000,271.480000,257.640000C274.100000,259.600000,277.010000,259.210000,278.550000,256.340000C279.910000,253.810000,280.840000,251.010000,281.670000,248.240000C282.210000,246.420000,282.220000,244.450000,282.470000,242.550000C282.100000,242.470000,281.730000,242.390000,281.360000,242.310000C280.330000,244.220000,279.180000,246.080000,278.310000,248.060000C277.670000,249.530000,276.740000,249.590000,275.590000,249.060000C273.410000,248.060000,272.380000,246.170000,271.780000,243.940000C270.600000,239.580000,272.480000,235.840000,274.100000,232.040000C276.750000,225.750000,279.480000,219.490000,282.080000,213.180000Z" opacity="0" fill="rgb(0,0,0)" stroke="none" stroke-width="1"/></g><g id="efjsjob3kg1742"><path id="efjsjob3kg1743" d="M76.430000,266.720000C71.140000,276.810000,66.390000,287.160000,63.280000,298.140000C61.820000,303.300000,62.270000,308.520000,66.260000,312.730000C69.440000,316.080000,73.150000,315.730000,74.990000,311.550000C76.540000,308.020000,77.280000,304.130000,78.280000,300.380000C78.430000,299.820000,78.040000,299.110000,77.900000,298.480000C77.710000,298.440000,77.510000,298.410000,77.320000,298.370000C76.290000,300.270000,75.110000,302.100000,74.270000,304.080000C73.580000,305.690000,72.370000,305.830000,71.430000,305.020000C70.040000,303.820000,68.420000,302.310000,68.020000,300.670000C67.460000,298.360000,67.560000,295.720000,68.060000,293.360000C68.580000,290.900000,69.910000,288.610000,70.880000,286.240000C73.430000,280,76.010000,273.770000,78.510000,267.500000C78.830000,266.700000,78.710000,265.720000,78.830000,264.400000C78.060000,264.900000,77.770000,265,77.600000,265.200000C77.160000,265.670000,76.720000,266.160000,76.430000,266.720000Z" opacity="0" fill="rgb(0,0,0)" stroke="none" stroke-width="1"/></g><g id="efjsjob3kg1744"><path id="efjsjob3kg1745" d="M501.500000,272.470000C503.730000,267.090000,505.970000,261.700000,508.100000,256.280000C508.510000,255.240000,508.480000,254.030000,508.660000,252.900000C508.420000,252.810000,508.170000,252.710000,507.930000,252.620000C507.170000,253.670000,506.230000,254.640000,505.700000,255.790000C502.730000,262.180000,499.720000,268.550000,497.010000,275.050000C495.320000,279.110000,493.750000,283.300000,492.860000,287.580000C491.810000,292.610000,492.420000,297.590000,496.650000,301.320000C499.640000,303.960000,502.910000,303.580000,504.550000,300.010000C506.050000,296.760000,506.920000,293.200000,507.910000,289.740000C508.190000,288.750000,507.950000,287.610000,507.950000,286.530000C507.680000,286.470000,507.420000,286.410000,507.150000,286.350000C506.150000,288.180000,505.110000,290,504.160000,291.850000C503.170000,293.770000,502.440000,294.170000,500.770000,292.830000C499.510000,291.810000,498.090000,290.320000,497.840000,288.860000C497.410000,286.280000,497.390000,283.450000,498,280.930000C498.730000,278,500.330000,275.290000,501.500000,272.470000Z" opacity="0" fill="rgb(0,0,0)" stroke="none" stroke-width="1"/></g><g id="efjsjob3kg1746"><path id="efjsjob3kg1747" d="M262.890000,147.030000C262.930000,151.280000,264.420000,155.130000,268.160000,157.720000C271.430000,159.990000,274.670000,159.350000,275.880000,155.590000C277.080000,151.850000,277.450000,147.840000,278.080000,143.930000C278.190000,143.260000,277.790000,142.520000,277.630000,141.810000C277.400000,141.770000,277.170000,141.740000,276.940000,141.700000C276.120000,143.680000,275.110000,145.610000,274.540000,147.660000C274.040000,149.470000,273.020000,149.540000,271.670000,149.040000C268.970000,148.050000,267.860000,145.770000,267.160000,143.210000C266.380000,140.340000,266.910000,137.570000,267.750000,134.800000C269.890000,127.730000,272.080000,120.660000,274.120000,113.560000C274.600000,111.870000,274.550000,110.030000,274.740000,108.260000C274.440000,108.180000,274.130000,108.090000,273.830000,108.010000C273.150000,109.280000,272.250000,110.480000,271.830000,111.830000C269.180000,120.240000,266.500000,128.640000,264.140000,137.130000C263.250000,140.310000,262.860000,143.730000,262.890000,147.030000Z" opacity="0" fill="rgb(0,0,0)" stroke="none" stroke-width="1"/></g><g id="efjsjob3kg1748"><path id="efjsjob3kg1749" d="M239.400000,414.060000C239.830000,413.020000,239.840000,411.800000,240.040000,410.670000C239.750000,410.550000,239.470000,410.430000,239.180000,410.310000C238.460000,411.320000,237.580000,412.240000,237.060000,413.340000C234.420000,418.930000,231.690000,424.500000,229.360000,430.220000C227.330000,435.210000,225.360000,440.300000,224.160000,445.530000C223.040000,450.390000,223.910000,455.240000,227.900000,458.890000C230.870000,461.610000,233.920000,461.210000,235.910000,457.800000C238.050000,454.120000,239.250000,450.120000,239.310000,445.820000C239.320000,445.310000,239.160000,444.790000,239.080000,444.280000C238.860000,444.210000,238.650000,444.140000,238.430000,444.070000C237.440000,445.900000,236.280000,447.650000,235.520000,449.570000C234.750000,451.510000,233.650000,451.450000,232.210000,450.610000C229.670000,449.130000,228.890000,446.670000,228.590000,443.960000C228.150000,440.070000,229.950000,436.760000,231.370000,433.360000C234.040000,426.910000,236.770000,420.510000,239.400000,414.060000Z" opacity="0" fill="rgb(0,0,0)" stroke="none" stroke-width="1"/></g><g id="efjsjob3kg1750"><path id="efjsjob3kg1751" d="M474.630000,210.310000C475.040000,209.280000,474.980000,208.070000,475.140000,206.940000C474.900000,206.840000,474.670000,206.750000,474.430000,206.650000C473.710000,207.630000,472.790000,208.520000,472.320000,209.610000C468.180000,219.200000,463.950000,228.760000,460.140000,238.490000C459.120000,241.090000,459.180000,244.230000,459.240000,247.110000C459.320000,250.600000,460.900000,253.570000,463.730000,255.730000C466.360000,257.730000,469.100000,257.310000,470.860000,254.510000C473.250000,250.690000,474.350000,246.440000,474.580000,241.960000C474.600000,241.510000,474.420000,241.040000,474.330000,240.580000C474.110000,240.510000,473.890000,240.440000,473.680000,240.360000C472.640000,242.260000,471.480000,244.100000,470.620000,246.080000C469.950000,247.620000,469.060000,247.750000,467.770000,247.100000C465.220000,245.810000,464.260000,243.530000,463.870000,240.870000C463.190000,236.260000,465.460000,232.440000,467.120000,228.450000C469.640000,222.400000,472.190000,216.380000,474.630000,210.310000Z" opacity="0" fill="rgb(0,0,0)" stroke="none" stroke-width="1"/></g><g id="efjsjob3kg1752"><path id="efjsjob3kg1753" d="M389.780000,139.640000C393.420000,142.220000,396.740000,141.350000,397.950000,137.080000C398.960000,133.500000,399.170000,129.690000,399.620000,125.970000C399.710000,125.230000,399.260000,124.430000,399.060000,123.650000C398.830000,123.620000,398.600000,123.600000,398.370000,123.570000C397.700000,125.310000,396.980000,127.030000,396.390000,128.800000C395.440000,131.630000,394.030000,132.120000,391.680000,130.150000C390.780000,129.400000,389.990000,128.390000,389.460000,127.340000C387.910000,124.270000,387.890000,121.070000,388.860000,117.790000C390.750000,111.380000,392.660000,104.970000,394.380000,98.520000C394.910000,96.550000,394.860000,94.420000,395.070000,92.370000C394.770000,92.280000,394.470000,92.190000,394.170000,92.100000C393.590000,93.150000,392.810000,94.140000,392.460000,95.260000C390.390000,101.990000,388.240000,108.700000,386.480000,115.500000C385.420000,119.600000,384.590000,123.860000,384.440000,128.080000C384.270000,132.620000,385.820000,136.830000,389.780000,139.640000Z" opacity="0" fill="rgb(0,0,0)" stroke="none" stroke-width="1"/></g><g id="efjsjob3kg1754"><path id="efjsjob3kg1755" d="M144.150000,163.020000C147.590000,165.420000,150.620000,164.480000,152.140000,160.600000C153.650000,156.750000,153.970000,152.720000,153.710000,148.630000C153.670000,148.060000,153.380000,147.510000,153.210000,146.960000C152.980000,146.930000,152.760000,146.910000,152.530000,146.880000C151.790000,148.900000,150.890000,150.870000,150.360000,152.940000C149.900000,154.730000,148.780000,155.070000,147.550000,154.300000C146.110000,153.390000,144.620000,152.210000,143.770000,150.790000C142.190000,148.150000,141.940000,145.140000,142.810000,142.130000C144.640000,135.780000,146.590000,129.470000,148.290000,123.090000C148.910000,120.760000,148.970000,118.270000,149.280000,115.860000C148.920000,115.740000,148.550000,115.620000,148.190000,115.510000C147.590000,116.730000,146.810000,117.890000,146.410000,119.170000C144.480000,125.420000,142.540000,131.670000,140.840000,137.980000C139.840000,141.670000,138.920000,145.460000,138.630000,149.250000C138.230000,154.590000,139.320000,159.660000,144.150000,163.020000Z" opacity="0" fill="rgb(0,0,0)" stroke="none" stroke-width="1"/></g><g id="efjsjob3kg1756"><path id="efjsjob3kg1757" d="M169.950000,470.190000C168.500000,470.660000,167.310000,471.040000,166.030000,471.460000C165.430000,469.980000,164.890000,468.640000,164.350000,467.340000C159.800000,468.720000,159.580000,469.480000,162.400000,473.280000C163.500000,472.850000,164.610000,472.420000,165.670000,472C166.580000,473.630000,167.420000,475.140000,168.270000,476.650000C169.270000,475.940000,170.270000,475.230000,171.470000,474.380000C171.010000,473.080000,170.490000,471.650000,169.950000,470.190000Z" opacity="0" fill="rgb(0,0,0)" stroke="none" stroke-width="1"/></g><script><![CDATA[!function(t,n){"object"==typeof exports&&"undefined"!=typeof module?module.exports=n():"function"==typeof define&&define.amd?define(n):(t=t||self).__SVGATOR_PLAYER__=n()}(this,(function(){"use strict";function t(n){return(t="function"==typeof Symbol&&"symbol"==typeof Symbol.iterator?function(t){return typeof t}:function(t){return t&&"function"==typeof Symbol&&t.constructor===Symbol&&t!==Symbol.prototype?"symbol":typeof t})(n)}function n(t,n){if(!(t instanceof n))throw new TypeError("Cannot call a class as a function")}function r(t,n){for(var r=0;r<n.length;r++){var e=n[r];e.enumerable=e.enumerable||!1,e.configurable=!0,"value"in e&&(e.writable=!0),Object.defineProperty(t,e.key,e)}}function e(t,n,e){return n&&r(t.prototype,n),e&&r(t,e),t}var i=1e-5,u=Math.abs;function o(t){return t}function a(t,n,r){var e=1-r;return 3*r*e*(t*e+n*r)+r*r*r}function l(){var t=arguments.length>0&&void 0!==arguments[0]?arguments[0]:0,n=arguments.length>1&&void 0!==arguments[1]?arguments[1]:0,r=arguments.length>2&&void 0!==arguments[2]?arguments[2]:1,e=arguments.length>3&&void 0!==arguments[3]?arguments[3]:1;return t<0||t>1||r<0||r>1?null:u(t-n)<=i&&u(r-e)<=i?o:function(o){if(o<=0)return t>0?o*n/t:0===n&&r>0?o*e/r:0;if(o>=1)return r<1?1+(o-1)*(e-1)/(r-1):1===r&&t<1?1+(o-1)*(n-1)/(t-1):1;for(var l,f=0,s=1;f<s;){var c=a(t,r,l=(f+s)/2);if(u(o-c)<i)break;c<o?f=l:s=l}return a(n,e,l)}}function f(){return 1}function s(t){return 1===t?1:0}function c(){var t=arguments.length>0&&void 0!==arguments[0]?arguments[0]:1,n=arguments.length>1&&void 0!==arguments[1]?arguments[1]:0;if(1===t){if(0===n)return s;if(1===n)return f}var r=1/t;return function(t){return t>=1?1:(t+=n*r)-t%r}}function v(t){var n=arguments.length>1&&void 0!==arguments[1]?arguments[1]:2;if(Number.isInteger(t))return t;var r=Math.pow(10,n);return Math.round(t*r)/r}var h=Math.PI/180;function y(t,n,r){return t>=.5?r:n}function d(t,n,r){return 0===t||n===r?n:t*(r-n)+n}function g(t,n,r){var e=d(t,n,r);return e<=0?0:e}function m(t,n,r){return 0===t?n:1===t?r:{x:d(t,n.x,r.x),y:d(t,n.y,r.y)}}function p(t,n,r){return 0===t?n:1===t?r:{x:g(t,n.x,r.x),y:g(t,n.y,r.y)}}function b(t,n,r){var e=function(t,n,r){return Math.round(d(t,n,r))}(t,n,r);return e<=0?0:e>=255?255:e}function w(t,n,r){return 0===t?n:1===t?r:{r:b(t,n.r,r.r),g:b(t,n.g,r.g),b:b(t,n.b,r.b),a:d(t,null==n.a?1:n.a,null==r.a?1:r.a)}}function A(t,n,r){if(0===t)return n;if(1===t)return r;var e=n.length;if(e!==r.length)return y(t,n,r);for(var i=[],u=0;u<e;u++)i.push(w(t,n[u],r[u]));return i}function x(t,n,r){var e=n.length;if(e!==r.length)return y(t,n,r);for(var i=new Array(e),u=0;u<e;u++)i[u]=d(t,n[u],r[u]);return i}function k(t,n){for(var r=[],e=0;e<t;e++)r.push(n);return r}function S(t,n){if(--n<=0)return t;var r=(t=Object.assign([],t)).length;do{for(var e=0;e<r;e++)t.push(t[e])}while(--n>0);return t}var _=6,M=/\.0+$/g;function I(t){return Number.isInteger(t)?t+"":t.toFixed(_).replace(M,"")}function E(t){var n=arguments.length>1&&void 0!==arguments[1]?arguments[1]:" ";return t&&t.length?t.map(I).join(n):""}function F(t){return I(t.x)+","+I(t.y)}function B(t){return t?null==t.a||t.a>=1?"rgb("+t.r+","+t.g+","+t.b+")":"rgba("+t.r+","+t.g+","+t.b+","+t.a+")":"transparent"}var j={f:null,i:p,u:function(t,n){return function(r){var e=n(r);t.setAttribute("rx",I(e.x)),t.setAttribute("ry",I(e.y))}}},q={f:null,i:function(t,n,r){return 0===t?n:1===t?r:{width:g(t,n.width,r.width),height:g(t,n.height,r.height)}},u:function(t,n){return function(r){var e=n(r);t.setAttribute("width",I(e.width)),t.setAttribute("height",I(e.height))}}},P=Math.sin,O=Math.cos,z=Math.acos,L=Math.asin,C=Math.tan,R=Math.atan2,T=Math.PI/180,V=180/Math.PI,D=Math.sqrt,N=function(){function t(){var r=arguments.length>0&&void 0!==arguments[0]?arguments[0]:1,e=arguments.length>1&&void 0!==arguments[1]?arguments[1]:0,i=arguments.length>2&&void 0!==arguments[2]?arguments[2]:0,u=arguments.length>3&&void 0!==arguments[3]?arguments[3]:1,o=arguments.length>4&&void 0!==arguments[4]?arguments[4]:0,a=arguments.length>5&&void 0!==arguments[5]?arguments[5]:0;n(this,t),this.m=[r,e,i,u,o,a],this.i=null,this.w=null,this.s=null}return e(t,[{key:"point",value:function(t,n){var r=this.m;return{x:r[0]*t+r[2]*n+r[4],y:r[1]*t+r[3]*n+r[5]}}},{key:"translateSelf",value:function(){var t=arguments.length>0&&void 0!==arguments[0]?arguments[0]:0,n=arguments.length>1&&void 0!==arguments[1]?arguments[1]:0;if(!t&&!n)return this;var r=this.m;return r[4]+=r[0]*t+r[2]*n,r[5]+=r[1]*t+r[3]*n,this.w=this.s=this.i=null,this}},{key:"rotateSelf",value:function(){var t=arguments.length>0&&void 0!==arguments[0]?arguments[0]:0;if(t%=360){var n=P(t*=T),r=O(t),e=this.m,i=e[0],u=e[1];e[0]=i*r+e[2]*n,e[1]=u*r+e[3]*n,e[2]=e[2]*r-i*n,e[3]=e[3]*r-u*n,this.w=this.s=this.i=null}return this}},{key:"scaleSelf",value:function(){var t=arguments.length>0&&void 0!==arguments[0]?arguments[0]:1,n=arguments.length>1&&void 0!==arguments[1]?arguments[1]:1;if(1!==t||1!==n){var r=this.m;r[0]*=t,r[1]*=t,r[2]*=n,r[3]*=n,this.w=this.s=this.i=null}return this}},{key:"skewSelf",value:function(t,n){if(n%=360,(t%=360)||n){var r=this.m,e=r[0],i=r[1],u=r[2],o=r[3];t&&(t=C(t*T),r[2]+=e*t,r[3]+=i*t),n&&(n=C(n*T),r[0]+=u*n,r[1]+=o*n),this.w=this.s=this.i=null}return this}},{key:"resetSelf",value:function(){var t=arguments.length>0&&void 0!==arguments[0]?arguments[0]:1,n=arguments.length>1&&void 0!==arguments[1]?arguments[1]:0,r=arguments.length>2&&void 0!==arguments[2]?arguments[2]:0,e=arguments.length>3&&void 0!==arguments[3]?arguments[3]:1,i=arguments.length>4&&void 0!==arguments[4]?arguments[4]:0,u=arguments.length>5&&void 0!==arguments[5]?arguments[5]:0,o=this.m;return o[0]=t,o[1]=n,o[2]=r,o[3]=e,o[4]=i,o[5]=u,this.w=this.s=this.i=null,this}},{key:"recomposeSelf",value:function(){var t=arguments.length>0&&void 0!==arguments[0]?arguments[0]:null,n=arguments.length>1&&void 0!==arguments[1]?arguments[1]:null,r=arguments.length>2&&void 0!==arguments[2]?arguments[2]:null,e=arguments.length>3&&void 0!==arguments[3]?arguments[3]:null,i=arguments.length>4&&void 0!==arguments[4]?arguments[4]:null;return this.isIdentity||this.resetSelf(),t&&(t.x||t.y)&&this.translateSelf(t.x,t.y),n&&this.rotateSelf(n),r&&(r.x&&this.skewSelf(r.x,0),r.y&&this.skewSelf(0,r.y)),!e||1===e.x&&1===e.y||this.scaleSelf(e.x,e.y),i&&(i.x||i.y)&&this.translateSelf(i.x,i.y),this}},{key:"decompose",value:function(){var t=arguments.length>0&&void 0!==arguments[0]?arguments[0]:0,n=arguments.length>1&&void 0!==arguments[1]?arguments[1]:0,r=this.m,e=r[0]*r[0]+r[1]*r[1],i=[[r[0],r[1]],[r[2],r[3]]],u=D(e);if(0===u)return{origin:{x:r[4],y:r[5]},translate:{x:t,y:n},scale:{x:0,y:0},skew:{x:0,y:0},rotate:0};i[0][0]/=u,i[0][1]/=u;var o=r[0]*r[3]-r[1]*r[2]<0;o&&(u=-u);var a=i[0][0]*i[1][0]+i[0][1]*i[1][1];i[1][0]-=i[0][0]*a,i[1][1]-=i[0][1]*a;var l=D(i[1][0]*i[1][0]+i[1][1]*i[1][1]);if(0===l)return{origin:{x:r[4],y:r[5]},translate:{x:t,y:n},scale:{x:u,y:0},skew:{x:0,y:0},rotate:0};i[1][0]/=l,i[1][1]/=l,a/=l;var f=0;return i[1][1]<0?(f=z(i[1][1])*V,i[0][1]<0&&(f=360-f)):f=L(i[0][1])*V,o&&(f=-f),a=R(a,D(i[0][0]*i[0][0]+i[0][1]*i[0][1]))*V,{origin:{x:r[4],y:r[5]},translate:{x:t,y:n},scale:{x:u,y:l},skew:{x:a,y:0},rotate:f}}},{key:"toString",value:function(){return null===this.s&&(this.s="matrix("+this.m.map($).join(" ")+")"),this.s}},{key:"determinant",get:function(){var t=this.m;return t[0]*t[3]-t[1]*t[2]}},{key:"isIdentity",get:function(){if(null===this.i){var t=this.m;this.i=1===t[0]&&0===t[1]&&0===t[2]&&1===t[3]&&0===t[4]&&0===t[5]}return this.i}}]),t}(),G=/\.0+$/;function $(t){return Number.isInteger(t)?t:t.toFixed(14).replace(G,"")}Object.freeze({M:2,L:2,Z:0,H:1,V:1,C:6,Q:4,T:2,S:4,A:7});function H(t,n,r){return t+(n-t)*r}function Q(t,n,r){var e=arguments.length>3&&void 0!==arguments[3]&&arguments[3],i={x:H(t.x,n.x,r),y:H(t.y,n.y,r)};return e&&(i.a=function(t,n){return Math.atan2(n.y-t.y,n.x-t.x)}(t,n)),i}function U(t,n,r,e){var i=1-e;return i*i*t+2*i*e*n+e*e*r}function Y(t,n,r,e){return 2*(1-e)*(n-t)+2*e*(r-n)}function Z(t,n,r,e){var i=arguments.length>4&&void 0!==arguments[4]&&arguments[4],u={x:U(t.x,n.x,r.x,e),y:U(t.y,n.y,r.y,e)};return i&&(u.a=function(t,n,r,e){return Math.atan2(Y(t.y,n.y,r.y,e),Y(t.x,n.x,r.x,e))}(t,n,r,e)),u}function J(t,n,r,e,i){var u=i*i;return i*u*(e-t+3*(n-r))+3*u*(t+r-2*n)+3*i*(n-t)+t}function K(t,n,r,e,i){var u=1-i;return 3*(u*u*(n-t)+2*u*i*(r-n)+i*i*(e-r))}function W(t,n,r,e,i){var u=arguments.length>5&&void 0!==arguments[5]&&arguments[5],o={x:J(t.x,n.x,r.x,e.x,i),y:J(t.y,n.y,r.y,e.y,i)};return u&&(o.a=function(t,n,r,e,i){return Math.atan2(K(t.y,n.y,r.y,e.y,i),K(t.x,n.x,r.x,e.x,i))}(t,n,r,e,i)),o}function X(t,n,r){var e,i=arguments.length>3&&void 0!==arguments[3]&&arguments[3];if(nt(n)){if(null!=(e=r).start&&!nt(e))return Z(n,r.start,r,t,i)}else if(nt(r)){if(n.end)return Z(n,n.end,r,t,i)}else{if(n.end)return r.start?W(n,n.end,r.start,r,t,i):Z(n,n.end,r,t,i);if(r.start)return Z(n,r.start,r,t,i)}return Q(n,r,t,i)}function tt(t,n,r){var e=X(t,n,r,!0);return e.a=function(t){return arguments.length>1&&void 0!==arguments[1]&&arguments[1]?t+Math.PI:t}(e.a)/h,e}function nt(t){return!t.type||"corner"===t.type}var rt=new N;var et={f:function(t){return t?t.join(" "):""},i:function(n,r,e){if(0===n)return r;if(1===n)return e;var i=r.length;if(i!==e.length)return y(n,r,e);for(var u,o=new Array(i),a=0;a<i;a++){if((u=t(r[a]))!==t(e[a]))return y(n,r,e);if("number"===u)o[a]=d(n,r[a],e[a]);else{if(r[a]!==e[a])return y(n,r,e);o[a]=r[a]}}return o}},it={f:null,i:x,u:function(t,n){return function(r){var e=n(r);t.setAttribute("x1",I(e[0])),t.setAttribute("y1",I(e[1])),t.setAttribute("x2",I(e[2])),t.setAttribute("y2",I(e[3]))}}},ut={f:I,i:d},ot={f:I,i:function(t,n,r){var e=d(t,n,r);return e<=0?0:e>=1?1:e}},at={f:E,i:function(t,n,r){var e,i,u,o=n.length,a=r.length;if(o!==a)if(0===o)n=k(o=a,0);else if(0===a)a=o,r=k(o,0);else{var l=(u=(e=o)*(i=a)/function(t,n){for(var r;n;)r=n,n=t%n,t=r;return t||1}(e,i))<0?-u:u;n=S(n,Math.floor(l/o)),r=S(r,Math.floor(l/a)),o=a=l}for(var f=[],s=0;s<o;s++)f.push(v(g(t,n[s],r[s]),6));return f}};function lt(t,n,r,e,i,u,o,a){return n=function(t,n,r){for(var e,i,u,o=t.length-1,a={},l=0;l<=o;l++)(e=t[l]).e&&(e.e=n(e.e)),e.v&&"g"===(i=e.v).t&&i.r&&(u=r.getElementById(i.r))&&(a[i.r]=u.querySelectorAll("stop"));return a}(t,e,a),function(e){var i,u=r(e,t,ft);return u?"c"===u.t?B(u.v):"g"===u.t?(n[u.r]&&function(t,n){for(var r=0,e=t.length;r<e;r++)t[r].setAttribute("stop-color",B(n[r]))}(n[u.r],u.v),(i=u.r)?"url(#"+i+")":"none"):"none":"none"}}function ft(t,n,r){if(0===t)return n;if(1===t)return r;if(n&&r){var e=n.t;if(e===r.t)switch(n.t){case"c":return{t:e,v:w(t,n.v,r.v)};case"g":if(n.r===r.r)return{t:e,v:A(t,n.v,r.v),r:n.r}}}return y(t,n,r)}var st={blur:p,brightness:g,contrast:g,"drop-shadow":function(t,n,r){return 0===t?n:1===t?r:{blur:p(t,n.blur,r.blur),offset:m(t,n.offset,r.offset),color:w(t,n.color,r.color)}},grayscale:g,"hue-rotate":d,invert:g,opacity:g,saturate:g,sepia:g};function ct(t,n,r){if(0===t)return n;if(1===t)return r;var e=n.length;if(e!==r.length)return y(t,n,r);for(var i,u=[],o=0;o<e;o++){if(n[o].type!==r[o].type)return n;if(!(i=st[n[o].type]))return y(t,n,r);u.push({type:n.type,value:i(t,n[o].value,r[o].value)})}return u}var vt={blur:function(t){return t?function(n){t.setAttribute("stdDeviation",F(n))}:null},brightness:function(t,n,r){return(t=yt(r,n))?function(n){n=I(n),t.map((function(t){return t.setAttribute("slope",n)}))}:null},contrast:function(t,n,r){return(t=yt(r,n))?function(n){var r=I((1-n)/2);n=I(n),t.map((function(t){t.setAttribute("slope",n),t.setAttribute("intercept",r)}))}:null},"drop-shadow":function(t,n,r){var e=r.getElementById(n+"-blur");if(!e)return null;var i=r.getElementById(n+"-offset");if(!i)return null;var u=r.getElementById(n+"-flood");return u?function(t){e.setAttribute("stdDeviation",F(t.blur)),i.setAttribute("dx",I(t.offset.x)),i.setAttribute("dy",I(t.offset.y)),u.setAttribute("flood-color",B(t.color))}:null},grayscale:function(t){return t?function(n){t.setAttribute("values",E(function(t){return[.2126+.7874*(t=1-t),.7152-.7152*t,.0722-.0722*t,0,0,.2126-.2126*t,.7152+.2848*t,.0722-.0722*t,0,0,.2126-.2126*t,.7152-.7152*t,.0722+.9278*t,0,0,0,0,0,1,0]}(n)))}:null},"hue-rotate":function(t){return t?function(n){return t.setAttribute("values",I(n))}:null},invert:function(t,n,r){return(t=yt(r,n))?function(n){n=I(n)+" "+I(1-n),t.map((function(t){return t.setAttribute("tableValues",n)}))}:null},opacity:function(t,n,r){return(t=r.getElementById(n+"-A"))?function(n){return t.setAttribute("tableValues","0 "+I(n))}:null},saturate:function(t){return t?function(n){return t.setAttribute("values",I(n))}:null},sepia:function(t){return t?function(n){return t.setAttribute("values",E(function(t){return[.393+.607*(t=1-t),.769-.769*t,.189-.189*t,0,0,.349-.349*t,.686+.314*t,.168-.168*t,0,0,.272-.272*t,.534-.534*t,.131+.869*t,0,0,0,0,0,1,0]}(n)))}:null}};var ht=["R","G","B"];function yt(t,n){var r=ht.map((function(r){return t.getElementById(n+"-"+r)||null}));return-1!==r.indexOf(null)?null:r}var dt={fill:lt,"fill-opacity":ot,stroke:lt,"stroke-opacity":ot,"stroke-width":ut,"stroke-dashoffset":{f:I,i:d},"stroke-dasharray":at,opacity:ot,transform:function(n,r,e,i){if(!(n=function(n,r){if(!n||"object"!==t(n))return null;var e=!1;for(var i in n)n.hasOwnProperty(i)&&(n[i]&&n[i].length?(n[i].forEach((function(t){t.e&&(t.e=r(t.e))})),e=!0):delete n[i]);return e?n:null}(n,i)))return null;var u=function(t,i,u){var o=arguments.length>3&&void 0!==arguments[3]?arguments[3]:null;return n[t]?e(i,n[t],u):r&&r[t]?r[t]:o};return r&&r.a&&n.o?function(t){var r=e(t,n.o,tt);return rt.recomposeSelf(r,u("r",t,d,0)+r.a,u("k",t,m),u("s",t,m),u("t",t,m)).toString()}:function(t){return rt.recomposeSelf(u("o",t,X,null),u("r",t,d,0),u("k",t,m),u("s",t,m),u("t",t,m)).toString()}},"#filter":function(t,n,r,e,i,u,o,a){if(!n.items||!t||!t.length)return null;var l=function(t,n){var r=(t=t.map((function(t){return t&&vt[t[0]]?(n.getElementById(t[1]),vt[t[0]](n.getElementById(t[1]),t[1],n)):null}))).length;return function(n){for(var e=0;e<r;e++)t[e]&&t[e](n[e].value)}}(n.items,a);return l?(t=function(t,n){return t.map((function(t){return t.e=n(t.e),t}))}(t,e),function(n){l(r(n,t,ct))}):null},"#line":it,points:{f:E,i:x},d:et,r:ut,"#size":q,"#radius":j,_:function(t,n){if(Array.isArray(t))for(var r=0;r<t.length;r++)this[t[r]]=n;else this[t]=n}},gt=function(){function t(r){n(this,t),this.list=r,this.length=r.length}return e(t,[{key:"setAttribute",value:function(t,n){for(var r=this.list,e=0;e<this.length;e++)r[e].setAttribute(t,n)}},{key:"removeAttribute",value:function(t){for(var n=this.list,r=0;r<this.length;r++)n[r].removeAttribute(t)}},{key:"style",value:function(t,n){for(var r=this.list,e=0;e<this.length;e++)r[e].style[t]=n}}]),t}(),mt=/-./g,pt=function(t,n){return n.toUpperCase()};function bt(t){return"function"==typeof t?t:y}function wt(t){return t?"function"==typeof t?t:Array.isArray(t)?function(t){var n=arguments.length>1&&void 0!==arguments[1]?arguments[1]:o;if(!Array.isArray(t))return n;switch(t.length){case 1:return c(t[0])||n;case 2:return c(t[0],t[1])||n;case 4:return l(t[0],t[1],t[2],t[3])||n}return n}(t,null):function(t,n){var r=arguments.length>2&&void 0!==arguments[2]?arguments[2]:o;switch(t){case"linear":return o;case"steps":return c(n.steps||1,n.jump||0)||r;case"bezier":case"cubic-bezier":return l(n.x1||0,n.y1||0,n.x2||0,n.y2||0)||r}return r}(t.type,t.value,null):null}function At(t,n,r){var e=arguments.length>3&&void 0!==arguments[3]&&arguments[3],i=n.length-1;if(t<=n[0].t)return e?[0,0,n[0].v]:n[0].v;if(t>=n[i].t)return e?[i,1,n[i].v]:n[i].v;var u,o=n[0],a=null;for(u=1;u<=i;u++){if(!(t>n[u].t)){a=n[u];break}o=n[u]}return null==a?e?[i,1,n[i].v]:n[i].v:o.t===a.t?e?[u,1,a.v]:a.v:(t=(t-o.t)/(a.t-o.t),o.e&&(t=o.e(t)),e?[u,t,r(t,o.v,a.v)]:r(t,o.v,a.v))}function xt(t,n){var r=arguments.length>2&&void 0!==arguments[2]?arguments[2]:null;return t&&t.length?"function"!=typeof n?null:("function"!=typeof r&&(r=null),function(e){var i=At(e,t,n);return null!=i&&r&&(i=r(i)),i}):null}function kt(t,n){return t.t-n.t}function St(n,r,e,i,u){var o,a="@"===e[0],l="#"===e[0],f=dt[e],s=y;switch(a?(o=e.substr(1),e=o.replace(mt,pt)):l&&(e=e.substr(1)),t(f)){case"function":if(s=f(i,u,At,wt,e,a,r,n),l)return s;break;case"string":s=xt(i,bt(f));break;case"object":if((s=xt(i,bt(f.i),f.f))&&"function"==typeof f.u)return f.u(r,s,e,a,n)}return s?function(t,n,r){if(arguments.length>3&&void 0!==arguments[3]&&arguments[3])return t instanceof gt?function(e){return t.style(n,r(e))}:function(e){return t.style[n]=r(e)};if(Array.isArray(n)){var e=n.length;return function(i){var u=r(i);if(null==u)for(var o=0;o<e;o++)t[o].removeAttribute(n);else for(var a=0;a<e;a++)t[a].setAttribute(n,u)}}return function(e){var i=r(e);null==i?t.removeAttribute(n):t.setAttribute(n,i)}}(r,e,s,a):null}function _t(n,r,e,i){if(!i||"object"!==t(i))return null;var u=null,o=null;return Array.isArray(i)?o=function(t){if(!t||!t.length)return null;for(var n=0;n<t.length;n++)t[n].e&&(t[n].e=wt(t[n].e));return t.sort(kt)}(i):(o=i.keys,u=i.data||null),o?St(n,r,e,o,u):null}function Mt(t,n,r){if(!r)return null;var e=[];for(var i in r)if(r.hasOwnProperty(i)){var u=_t(t,n,i,r[i]);u&&e.push(u)}return e.length?e:null}function It(t,n){if(!n.duration||n.duration<0)return null;var r=function(t,n){if(!n)return null;var r=[];if(Array.isArray(n))for(var e=n.length,i=0;i<e;i++){var u=n[i];if(2===u.length){var o=null;if("string"==typeof u[0])o=t.getElementById(u[0]);else if(Array.isArray(u[0])){o=[];for(var a=0;a<u[0].length;a++)if("string"==typeof u[0][a]){var l=t.getElementById(u[0][a]);l&&o.push(l)}o=o.length?1===o.length?o[0]:new gt(o):null}if(o){var f=Mt(t,o,u[1]);f&&(r=r.concat(f))}}}else for(var s in n)if(n.hasOwnProperty(s)){var c=t.getElementById(s);if(c){var v=Mt(t,c,n[s]);v&&(r=r.concat(v))}}return r.length?r:null}(t,n.elements);return r?function(t,n){var r=arguments.length>2&&void 0!==arguments[2]?arguments[2]:1/0,e=arguments.length>3&&void 0!==arguments[3]?arguments[3]:1,i=arguments.length>4&&void 0!==arguments[4]&&arguments[4],u=arguments.length>5&&void 0!==arguments[5]?arguments[5]:1,o=t.length,a=e>0?n:0;i&&r%2==0&&(a=n-a);var l=null;return function(f,s){var c=f%n,v=1+(f-c)/n;s*=e,i&&v%2==0&&(s=-s);var h=!1;if(v>r)c=a,h=!0,-1===u&&(c=e>0?0:n);else if(s<0&&(c=n-c),c===l)return!1;l=c;for(var y=0;y<o;y++)t[y](c);return h}}(r,n.duration,n.iterations||1/0,n.direction||1,!!n.alternate,n.fill||1):null}var Et=function(){function t(r){var e=arguments.length>1&&void 0!==arguments[1]?arguments[1]:{};n(this,t),this._id=0,this._running=!1,this._animations=r,this.direction=e.direction||1,this.speed=e.speed||1,this.fps=e.fps||100,this.offset=e.offset||0}return e(t,[{key:"_start",value:function(){var t=this,n=arguments.length>0&&void 0!==arguments[0]?arguments[0]:0,r=-1/0,e=null,i={},u=function u(o){t._running=!0,null==e&&(e=o);var a=Math.round((o-e+n)*t.speed),l=t.fps?1e3/t.fps:0;if(a>r+l){t.offset=a,r=a;for(var f=t._animations,s=f.length,c=0,v=0;v<s;v++)i[v]?c++:(i[v]=f[v](a,t.direction),i[v]&&c++);if(c===s)return void t._stop()}t._id=window.requestAnimationFrame(u)};this._id=window.requestAnimationFrame(u)}},{key:"_stop",value:function(){this._id&&window.cancelAnimationFrame(this._id),this._running=!1}},{key:"play",value:function(){this._running||this._start(this.offset)}},{key:"stop",value:function(){this._stop(),this.offset=0;var t=this.direction,n=this._animations;requestAnimationFrame((function(){for(var r=0;r<n.length;r++)n[r](0,t)}))}},{key:"restart",value:function(){this._stop(),this.offset=0,this._start()}},{key:"pause",value:function(){this._stop()}},{key:"reverse",value:function(){this.direction=-this.direction}}],[{key:"build",value:function(n){if(!(n=function(t){if(!t||!t.root||!Array.isArray(t.animations))return null;var n=window.document.getElementById(t.root);if(!n)return null;var r=t.animations.map((function(t){return It(n,t)})).filter((function(t){return!!t}));return r.length?{element:n,animations:r,options:t.options||void 0}:null}(n)))return null;var r=n.element,e=n.options||{},i=new t(n.animations,n.options);return function(t,n,r){var e=arguments.length>3&&void 0!==arguments[3]?arguments[3]:null;if("click"===r){return void n.addEventListener("click",(function r(){n.removeEventListener("click",r),t.play()}))}if("hover"===r)return n.addEventListener("mouseenter",(function(){return t.play()})),void n.addEventListener("mouseleave","freeze"===e?function(){return t.pause()}:function(){return t.stop()});t.play()}(i,r,e.start,e.hover),i}}]),t}();return function(){for(var t=0,n=["ms","moz","webkit","o"],r=0;r<n.length&&!window.requestAnimationFrame;++r)window.requestAnimationFrame=window[n[r]+"RequestAnimationFrame"],window.cancelAnimationFrame=window[n[r]+"CancelAnimationFrame"]||window[n[r]+"CancelRequestAnimationFrame"];window.requestAnimationFrame||(window.requestAnimationFrame=function(n){var r=Date.now(),e=Math.max(0,16-(r-t)),i=window.setTimeout((function(){n(r+e)}),e);return t=r+e,i},window.cancelAnimationFrame=window.clearTimeout)}(),Et}));
__SVGATOR_PLAYER__.build({"root":"efjsjob3kg171","animations":[{"duration":3000,"direction":1,"iterations":1,"fill":1,"alternate":false,"elements":{"efjsjob3kg173":{"opacity":[{"t":0,"v":0},{"t":300,"v":1},{"t":1600,"v":1}]},"efjsjob3kg175":{"opacity":[{"t":2000,"v":0},{"t":2500,"v":1}]},"efjsjob3kg177":{"opacity":[{"t":2000,"v":0},{"t":2500,"v":1}]},"efjsjob3kg179":{"opacity":[{"t":2000,"v":0},{"t":2500,"v":1}]},"efjsjob3kg1711":{"opacity":[{"t":2000,"v":0},{"t":2500,"v":1}]},"efjsjob3kg1713":{"opacity":[{"t":2000,"v":0},{"t":2500,"v":1}]},"efjsjob3kg1715":{"opacity":[{"t":2000,"v":0},{"t":2500,"v":1}]},"efjsjob3kg1717":{"opacity":[{"t":2000,"v":0},{"t":2500,"v":1}]},"efjsjob3kg1719":{"opacity":[{"t":2000,"v":0},{"t":2500,"v":1}]},"efjsjob3kg1721":{"opacity":[{"t":2000,"v":0},{"t":2500,"v":1}]},"efjsjob3kg1723":{"opacity":[{"t":2000,"v":0},{"t":2500,"v":1}]},"efjsjob3kg1725":{"opacity":[{"t":2000,"v":0},{"t":2500,"v":1}]},"efjsjob3kg1727":{"opacity":[{"t":2000,"v":0},{"t":2500,"v":1}]},"efjsjob3kg1729":{"opacity":[{"t":2000,"v":0},{"t":2500,"v":1}]},"efjsjob3kg1731":{"opacity":[{"t":2000,"v":0},{"t":2500,"v":1}]},"efjsjob3kg1733":{"opacity":[{"t":2000,"v":0},{"t":2500,"v":1}]},"efjsjob3kg1735":{"opacity":[{"t":2000,"v":0},{"t":2500,"v":1}]},"efjsjob3kg1737":{"opacity":[{"t":2000,"v":0},{"t":2500,"v":1}]},"efjsjob3kg1739":{"opacity":[{"t":2000,"v":0},{"t":2500,"v":1}]},"efjsjob3kg1741":{"opacity":[{"t":2000,"v":0},{"t":2500,"v":1}]},"efjsjob3kg1743":{"opacity":[{"t":2000,"v":0},{"t":2500,"v":1}]},"efjsjob3kg1745":{"opacity":[{"t":2000,"v":0},{"t":2500,"v":1}]},"efjsjob3kg1747":{"opacity":[{"t":2000,"v":0},{"t":2500,"v":1}]},"efjsjob3kg1749":{"opacity":[{"t":2000,"v":0},{"t":2500,"v":1}]},"efjsjob3kg1751":{"opacity":[{"t":2000,"v":0},{"t":2500,"v":1}]},"efjsjob3kg1753":{"opacity":[{"t":2000,"v":0},{"t":2500,"v":1}]},"efjsjob3kg1755":{"opacity":[{"t":2000,"v":0},{"t":2500,"v":1}]},"efjsjob3kg1757":{"opacity":[{"t":2000,"v":0},{"t":2500,"v":1}]}}}],"options":{"start":"hover","hover":"freeze"}})]]></script></svg>