<?xml version="1.0" standalone="no"?>
<!DOCTYPE svg PUBLIC "-//W3C//DTD SVG 20010904//EN"
 "http://www.w3.org/TR/2001/REC-SVG-20010904/DTD/svg10.dtd">
<svg version="1.0" xmlns="http://www.w3.org/2000/svg"
 width="391.000000pt" height="389.000000pt" viewBox="0 0 391.000000 389.000000"
 preserveAspectRatio="xMidYMid meet">
<metadata>
Created by potrace 1.15, written by Peter Selinger 2001-2017
</metadata>
<g transform="translate(0.000000,389.000000) scale(0.100000,-0.100000)"
fill="#000000" stroke="none">
<path d="M1667 3824 c-291 -45 -571 -159 -817 -332 -124 -87 -355 -318 -442
-442 -135 -192 -232 -398 -289 -614 -45 -172 -59 -290 -59 -491 0 -201 14
-319 59 -491 57 -216 154 -422 289 -614 87 -124 318 -355 442 -442 250 -176
528 -288 826 -333 131 -20 427 -20 558 0 298 45 576 157 826 333 124 87 355
318 442 442 176 250 288 528 333 826 20 131 20 427 0 558 -45 298 -157 576
-333 826 -87 124 -318 355 -442 442 -250 176 -528 288 -826 333 -125 19 -444
18 -567 -1z m540 -119 c275 -39 553 -150 783 -313 122 -86 326 -290 412 -412
122 -172 226 -398 278 -601 66 -259 66 -609 0 -868 -52 -203 -156 -429 -278
-601 -86 -122 -290 -326 -412 -412 -172 -122 -398 -226 -601 -278 -259 -66
-609 -66 -868 0 -203 52 -429 156 -601 278 -122 86 -326 290 -412 412 -122
172 -226 398 -278 601 -66 259 -66 609 0 868 52 203 156 429 278 601 86 122
290 326 412 412 226 160 508 274 774 313 124 18 388 18 513 0z"/>
<path d="M1710 3420 c-30 -32 -45 -78 -36 -108 4 -10 24 -29 46 -41 l40 -22
-19 -27 c-33 -48 -183 -185 -273 -252 -49 -35 -88 -68 -88 -72 0 -18 32 -5
119 50 107 67 210 156 258 224 34 47 36 48 59 33 21 -14 24 -13 34 4 15 29 12
49 -10 68 -14 12 -20 30 -20 58 0 22 -8 56 -18 75 -23 47 -54 51 -92 10z"/>
<path d="M2253 3360 c-26 -38 -52 -70 -56 -70 -5 0 -44 25 -87 55 -43 30 -81
55 -84 55 -7 0 -119 -151 -114 -154 20 -15 166 -114 175 -120 8 -4 30 21 63
68 l50 75 85 -59 c47 -33 89 -60 93 -60 12 0 104 149 98 159 -7 10 -162 121
-170 121 -3 0 -26 -31 -53 -70z"/>
<path d="M2655 3208 c-39 -120 -43 -186 -15 -220 12 -17 31 -28 45 -28 19 0
26 8 34 38 14 47 14 82 1 82 -5 0 -12 -11 -16 -25 -8 -31 -19 -32 -40 -1 -14
23 -14 31 10 119 29 105 30 117 16 117 -5 0 -21 -37 -35 -82z"/>
<path d="M1376 3258 c-15 -24 -36 -141 -36 -205 l0 -38 -20 44 c-29 64 -74
115 -123 141 -61 32 -79 23 -75 -36 3 -47 3 -47 53 -64 28 -9 55 -17 60 -16 8
1 81 -132 99 -178 11 -31 26 22 37 129 6 66 15 130 20 143 11 27 35 29 51 2
18 -29 26 -25 34 17 6 32 3 40 -20 60 -34 29 -62 29 -80 1z"/>
<path d="M1862 3165 c-23 -51 -62 -201 -62 -240 0 -50 23 -85 55 -85 28 0 40
18 50 78 7 46 -10 61 -21 17 -8 -33 -32 -32 -45 3 -8 21 -6 43 12 102 31 109
38 140 29 145 -4 2 -12 -7 -18 -20z"/>
<path d="M995 3059 c-15 -46 -29 -111 -32 -144 -4 -51 -2 -64 17 -87 40 -51
76 -32 86 46 8 52 -9 64 -27 19 l-11 -28 -20 25 c-22 27 -21 38 12 159 29 107
9 115 -25 10z"/>
<path d="M853 2988 c-171 -208 -287 -450 -308 -648 -13 -123 26 -249 98 -318
l35 -34 -23 -51 c-63 -137 -102 -351 -91 -489 12 -144 77 -290 158 -351 72
-55 125 -72 233 -72 118 0 200 22 338 92 56 28 88 39 84 30 -16 -43 -29 -190
-24 -276 11 -192 99 -343 234 -403 104 -46 272 -32 433 37 149 62 363 217 497
358 95 101 116 140 142 265 10 51 20 94 22 96 2 1 29 15 61 29 80 39 122 90
148 179 32 110 30 106 41 86 14 -25 69 -55 140 -77 72 -23 272 -71 292 -71 12
0 68 118 82 172 7 28 -25 159 -52 211 -47 93 -133 160 -204 160 -53 0 -106
-37 -160 -112 -24 -33 -48 -59 -54 -59 -5 0 -15 0 -21 -1 -7 0 -31 -47 -55
-103 -28 -67 -54 -114 -76 -135 -31 -30 -147 -93 -171 -93 -6 0 -20 20 -32 45
-28 58 -104 136 -161 166 -57 29 -139 31 -193 5 -52 -26 -112 -105 -132 -173
-21 -74 -16 -173 12 -210 62 -84 152 -99 357 -61 63 12 71 8 81 -35 6 -25 -1
-37 -66 -104 -82 -85 -237 -205 -355 -275 -207 -123 -410 -165 -541 -112 -56
22 -135 110 -161 178 -37 100 -48 302 -20 358 5 9 55 52 111 96 109 84 192
166 251 244 34 45 41 69 82 255 4 16 36 37 123 80 l119 59 22 -57 c32 -79 88
-150 141 -177 114 -59 386 13 602 159 33 23 62 51 70 70 10 23 31 40 83 66
106 54 208 128 279 203 58 62 65 67 79 52 13 -13 19 -13 31 -2 21 17 20 56 -2
78 -13 13 -18 33 -18 68 1 58 -24 104 -55 104 -26 0 -76 -49 -85 -84 -10 -40
2 -69 41 -95 l35 -23 -21 -27 c-44 -56 -302 -261 -330 -261 -4 0 -3 17 2 38
13 57 10 150 -7 222 -25 110 -124 283 -143 252 -3 -6 -19 -48 -35 -94 l-29
-83 46 -73 c25 -41 57 -104 72 -140 l26 -66 -23 -18 c-46 -35 -205 -108 -293
-133 -52 -15 -129 -29 -183 -32 l-93 -6 -54 56 c-30 31 -55 62 -55 69 0 7 17
24 37 38 40 27 67 80 104 200 41 136 9 279 -85 376 -53 55 -88 71 -132 60 -51
-13 -101 -89 -130 -201 -20 -74 -17 -112 17 -251 19 -73 28 -129 23 -134 -5
-5 -54 -27 -108 -49 l-99 -40 -23 50 c-28 59 -105 139 -165 170 -64 33 -140
32 -201 -3 -79 -47 -138 -162 -138 -269 0 -60 13 -96 49 -134 l29 -30 -44
-100 c-52 -120 -57 -173 -19 -211 19 -19 29 -23 43 -15 16 9 42 70 42 100 0
19 -18 12 -25 -9 -8 -24 -30 -26 -39 -4 -11 30 -6 56 30 139 l35 83 82 -5 c54
-4 112 0 168 11 47 9 90 16 96 16 6 0 14 -16 17 -36 6 -31 3 -41 -30 -81 -130
-158 -468 -380 -653 -428 -72 -18 -191 -21 -249 -6 -85 23 -161 104 -199 215
-14 40 -18 83 -18 201 0 140 2 156 30 238 28 85 30 88 55 83 14 -4 59 -9 100
-12 103 -9 213 19 356 91 113 57 202 120 656 471 215 166 306 225 398 262 163
64 261 48 352 -58 24 -27 46 -50 49 -50 4 0 14 43 24 96 l17 96 -29 41 c-16
23 -51 55 -78 72 -43 26 -57 30 -124 30 -172 0 -354 -99 -721 -394 -325 -261
-548 -396 -729 -442 -246 -62 -397 55 -361 278 23 142 58 221 198 445 51 81
92 152 92 158 0 23 -20 6 -77 -62z m1356 -557 c38 -38 106 -185 94 -204 -2 -4
-35 -28 -71 -52 l-67 -45 -8 27 c-4 16 -23 85 -41 155 l-35 128 22 15 c35 24
64 18 106 -24z m-593 -419 c81 -59 79 -62 -43 -62 -82 0 -114 4 -129 15 -18
14 -18 16 14 45 44 41 103 42 158 2z m774 -580 c39 -23 70 -54 64 -63 -7 -12
-177 -11 -208 1 -34 12 -33 34 2 58 47 34 91 35 142 4z"/>
<path d="M2845 2969 c-39 -68 -44 -84 -33 -94 24 -24 161 -115 172 -115 16 0
100 160 89 170 -8 7 -146 100 -169 113 -7 4 -30 -25 -59 -74z"/>
<path d="M1385 2860 c-155 -62 -565 -261 -584 -284 -6 -7 -14 -27 -17 -45 l-7
-31 164 84 c146 75 272 132 520 235 68 28 77 35 86 66 8 26 8 35 0 35 -7 0
-79 -27 -162 -60z"/>
<path d="M3034 2790 c-21 -38 -41 -70 -44 -70 -3 0 -41 25 -85 55 -43 30 -82
55 -86 55 -8 0 -83 -122 -95 -154 -4 -11 20 -32 86 -76 51 -33 96 -57 101 -54
5 3 23 31 39 62 16 31 33 63 38 70 7 10 28 0 91 -43 45 -31 88 -55 95 -52 15
6 86 133 86 154 0 13 -157 123 -176 123 -5 0 -28 -31 -50 -70z"/>
<path d="M1420 2756 c-65 -171 -61 -256 12 -256 61 0 118 57 118 118 0 35 -22
64 -70 90 -28 15 -34 24 -32 45 4 34 -15 35 -28 3z"/>
<path d="M2570 2615 c-9 -23 -9 -40 -1 -73 19 -73 14 -130 -14 -157 -28 -29
-70 -33 -80 -7 -4 9 -9 59 -12 110 -3 50 -9 92 -14 92 -25 0 -38 -175 -18
-238 12 -38 35 -52 82 -52 27 0 41 7 61 31 14 17 26 38 26 47 0 12 8 8 28 -15
38 -45 74 -52 106 -20 41 41 49 90 25 156 -11 31 -24 72 -30 91 -19 67 -19 66
-29 50 -17 -26 -11 -87 14 -156 14 -37 23 -71 20 -76 -3 -4 -18 -8 -34 -8 -38
0 -56 27 -70 110 -6 36 -19 83 -29 105 l-19 40 -12 -30z"/>
<path d="M956 2474 c-32 -41 -56 -77 -55 -78 24 -21 174 -126 180 -126 8 0
109 137 109 148 0 7 -164 132 -173 132 -1 0 -29 -34 -61 -76z"/>
<path d="M3223 2509 c-29 -36 -93 -210 -93 -253 0 -44 24 -86 49 -86 18 0 40
31 52 71 14 46 4 64 -18 32 -20 -30 -31 -29 -43 3 -8 21 -3 44 31 125 38 94
48 139 22 108z"/>
<path d="M1923 2499 c-6 -8 -30 -59 -53 -114 -48 -113 -56 -171 -26 -204 38
-42 73 -16 91 67 8 38 -7 43 -24 6 -9 -21 -14 -24 -26 -14 -28 24 -26 49 16
149 39 94 49 142 22 110z"/>
<path d="M2709 2156 c-75 -28 -186 -76 -247 -106 -103 -49 -113 -56 -122 -89
-5 -19 -8 -36 -6 -38 1 -2 72 30 157 71 85 41 196 89 247 107 75 26 96 37 107
60 16 31 19 49 8 48 -5 0 -69 -24 -144 -53z"/>
<path d="M3425 2153 c-43 -91 -75 -181 -75 -213 0 -37 40 -86 64 -77 20 8 46
66 45 99 l0 23 -16 -22 c-21 -30 -41 -29 -49 3 -5 18 5 55 35 127 44 108 46
117 32 117 -5 0 -21 -26 -36 -57z"/>
<path d="M531 2100 c-36 -59 -85 -193 -85 -236 -1 -48 26 -87 58 -82 25 4 63
95 47 111 -7 7 -14 1 -22 -16 -9 -21 -15 -24 -26 -16 -22 19 -15 70 22 163 39
95 42 133 6 76z"/>
<path d="M880 1797 c-19 -9 -33 -34 -58 -106 -18 -52 -30 -96 -28 -98 2 -3 17
2 33 10 47 24 91 30 180 22 l85 -7 -157 -105 c-92 -61 -154 -108 -148 -114 10
-10 215 52 276 82 44 23 105 103 162 212 33 64 38 79 26 86 -46 29 -322 43
-371 18z"/>
<path d="M2022 1798 c-6 -7 -25 -49 -43 -93 -26 -64 -33 -95 -33 -152 -1 -62
2 -75 23 -97 14 -14 32 -26 42 -26 27 0 49 39 49 87 0 49 -15 57 -25 13 -8
-34 -16 -37 -37 -12 -29 33 -28 63 8 175 34 105 38 131 16 105z"/>
<path d="M1943 1253 c-9 -21 -18 -75 -21 -120 -2 -46 -8 -83 -11 -83 -4 0 -15
16 -24 35 -34 72 -118 145 -166 145 -16 0 -21 -9 -26 -44 -4 -25 -4 -49 -1
-54 3 -6 30 -16 58 -22 29 -7 59 -18 67 -24 8 -6 32 -49 54 -95 28 -59 42 -80
50 -72 12 12 25 93 26 166 1 62 18 125 33 125 7 0 22 -10 35 -21 24 -23 25
-22 36 30 7 30 -32 71 -68 71 -21 0 -29 -8 -42 -37z"/>
<path d="M3158 1263 c-22 -27 -37 -70 -52 -153 -11 -61 -15 -70 -22 -50 -18
58 -63 127 -103 157 -59 46 -78 43 -89 -9 -5 -24 -7 -46 -5 -51 7 -12 100 -57
106 -51 8 8 36 -49 61 -124 12 -35 26 -64 31 -65 12 -2 28 48 56 176 23 110
39 127 74 83 l22 -27 12 43 c13 41 12 43 -14 65 -31 27 -57 29 -77 6z"/>
<path d="M1592 1052 c-55 -118 -68 -173 -52 -213 27 -64 80 -52 101 24 13 48
4 60 -22 27 -19 -25 -19 -25 -34 -5 -19 24 -14 51 31 154 35 82 40 101 25 101
-4 0 -26 -39 -49 -88z"/>
<path d="M2390 1093 c-198 -72 -434 -178 -606 -271 -109 -59 -123 -69 -132
-101 -6 -19 -10 -36 -9 -38 2 -1 91 42 198 96 107 54 274 132 373 172 146 61
181 79 192 101 23 44 19 54 -16 41z"/>
<path d="M1072 1004 c-30 -21 -29 -66 3 -121 24 -40 25 -44 8 -49 -50 -15 -68
-31 -66 -58 2 -33 17 -45 99 -87 54 -27 66 -29 98 -21 34 10 36 9 42 -14 3
-13 9 -24 13 -24 17 0 51 33 51 51 0 15 -7 19 -34 19 -34 0 -34 1 -23 29 6 16
16 27 22 25 7 -3 11 8 11 31 -1 52 -27 41 -47 -20 -14 -43 -17 -47 -23 -27 -4
12 -12 22 -18 22 -7 0 -7 4 0 13 9 10 -3 27 -49 73 -62 62 -93 124 -71 146 24
24 93 -40 148 -136 14 -25 24 -34 24 -23 0 49 -66 144 -121 173 -35 18 -39 18
-67 -2z"/>
<path d="M2802 873 c-16 -27 -33 -59 -37 -73 -14 -45 -35 -68 -118 -123 -88
-59 -184 -109 -339 -177 -54 -24 -98 -47 -98 -51 0 -12 -9 -13 126 19 188 45
384 155 423 235 12 24 21 49 21 56 0 9 6 11 18 6 9 -4 40 -10 67 -12 l51 -5
12 37 c13 45 -2 93 -39 119 -37 26 -55 19 -87 -31z"/>
</g>
</svg>
