<?xml version="1.0" encoding="utf-8"?>
<!-- Generator: Adobe Illustrator 23.0.6, SVG Export Plug-In . SVG Version: 6.00 Build 0)  -->
<svg version="1.1" xmlns="http://www.w3.org/2000/svg" xmlns:xlink="http://www.w3.org/1999/xlink" x="0px" y="0px"
	 viewBox="0 0 576 576" style="enable-background:new 0 0 576 576;" xml:space="preserve">
<style type="text/css">
	.st0{fill:none;stroke:#000000;stroke-width:17;stroke-miterlimit:10;}
</style>
<g id="Layer_29">
	<circle class="st0" cx="285.59" cy="291.17" r="271.83"/>
</g>
<g id="Layer_28">
	<path d="M500.55,326.68c-3.86-10.58-9.91-19.72-19.43-26.15c-9.01-6.09-17.8-5.93-26.16,1c-3.85,3.19-7.18,7.11-10.32,11.03
		c-2.68,3.34-4.77,7.16-7.12,10.77c-2.57-2.88-4.1-2.81-6.12,0.41c-1.01,1.62-1.94,3.33-2.66,5.11c-2.19,5.41-4.18,10.9-6.39,16.3
		c-1.73,4.22-3.43,8.56-7.01,11.6c-8.32,7.07-18.26,11.14-28.38,15.17c-0.3-0.67-0.56-1.16-0.75-1.68
		c-4.66-12.75-13.08-22.43-24.49-29.53c-12.99-8.08-28.11-6.33-38.55,4.87c-9.15,9.82-13.11,21.84-12.97,35.2
		c0.14,13.88,9.19,23.61,23,25.08c9.67,1.03,19.21-0.04,28.72-1.59c4.96-0.81,9.88-1.94,15.29-3.02c0.82,3.41,1.79,6.67,2.33,10
		c0.2,1.21-0.25,2.93-1.05,3.84c-4.35,4.89-8.69,9.83-13.44,14.33c-10.81,10.27-22.49,19.48-34.9,27.79
		c-12.35,8.26-25.05,15.81-38.92,21.25c-14.15,5.56-28.68,8.97-44.02,6.9c-8.06-1.09-15.46-3.89-21.6-9.42
		c-7.55-6.8-12.54-15.24-15.41-24.93c-4.2-14.17-4.27-28.62-3.01-43.21c0.44-5.07,2.67-8.09,6.76-11.01
		c16.47-11.79,32.42-24.25,45.1-40.33c4.33-5.49,8.87-10.87,10.43-17.93c1.95-8.82,3.75-17.66,5.52-26.52
		c0.25-1.28,0.75-1.86,1.94-2.37c6.15-2.63,12.32-5.21,18.32-8.16c5.35-2.64,10.47-5.73,15.86-8.71c0.31,0.77,0.64,1.54,0.94,2.33
		c3.09,8.14,6.51,16.11,11.66,23.22c6.49,8.96,15.22,13.43,26.31,13.35c7.39-0.05,14.61-1.23,21.72-3.11
		c18.63-4.91,35.68-13.28,51.83-23.67c5.35-3.44,9.96-7.4,11.93-13.68c0.43-1.36,1.23-2.08,2.5-2.62
		c10.52-4.48,20.39-10.15,29.71-16.75c9.76-6.9,18.8-14.59,26.11-24.15c1.03-1.34,1.97-2.75,3.11-4.34c2.1,1.95,4.05,3.76,6,5.56
		c5.17-6.28,5-8.63-0.91-13.84c-0.05-0.05-0.1-0.11-0.16-0.14c-1.91-1.01-1.95-2.44-1.43-4.41c1.41-5.38,0.74-10.67-1.89-15.53
		c-2.32-4.28-5.13-4.83-9.17-2.27c-3.89,2.47-6.38,6.02-7.97,10.28c-2.29,6.13-1.51,8.68,3.85,12.34c2.52,1.72,5.09,3.36,8.04,5.3
		c-15.97,18.27-35.12,32.26-56.1,45.25c4.95-14.35,4.95-28.24,1.28-42.22c-3.65-13.89-9.61-26.52-19.67-37.38
		c-3.04,8.6-5.9,16.86-8.93,25.05c-0.63,1.7-0.41,2.79,0.61,4.22c8.23,11.54,15.01,23.84,19.17,37.49c0.58,1.91,0.22,2.9-1.44,3.99
		c-22.04,14.52-45.99,23.7-72.39,26c-5.02,0.44-10.13,0.86-14.85-1.69c-7.54-4.08-12.02-10.88-16.24-18.11
		c2.87-2.24,5.55-4.48,8.38-6.51c3.07-2.19,5.33-5,6.62-8.46c2.58-6.93,5.18-13.86,7.31-20.93c1.3-4.33,2.34-8.9,2.43-13.39
		c0.21-10.94-2.61-21.29-7.89-30.9c-4.04-7.35-9.57-13.27-17.24-16.95c-5.22-2.5-10.14-1.9-14.51,1.88c-1.6,1.38-3.07,3-4.29,4.73
		c-5.19,7.34-7.89,15.74-9.84,24.4c-1.11,4.92-2.56,9.94-1.37,14.99c2.91,12.39,6.08,24.72,9.25,37.05c0.4,1.55,0.22,2.29-1.28,2.93
		c-7.66,3.26-15.26,6.66-22.93,9.88c-2.86,1.2-5.86,2.03-8.84,3.05c-0.37-0.77-0.65-1.27-0.84-1.79
		c-4.6-12.78-12.98-22.49-24.4-29.59c-14.08-8.76-30.52-5.89-40.64,7.23c-7.8,10.11-11.44,21.7-10.8,34.53
		c0.32,6.36,2.55,11.96,6.96,16.57c1.49,1.56,3.31,2.82,4.57,3.86c-3.76,8.9-7.54,17.57-11.06,26.35c-1.15,2.87-1.94,5.98-2.32,9.04
		c-0.52,4.23,0.37,8.27,3.59,11.4c3.29,3.2,6.75,2.86,8.6-1.3c1.56-3.52,2.28-7.43,3.28-11.19c0.15-0.56-0.25-1.26-0.39-1.9
		c-1.47,1.56-2.46,3.17-3.31,4.85c-1.28,2.51-2.56,2.81-4.59,0.76c-0.78-0.78-1.43-1.8-1.84-2.82c-1.23-3.06-1.05-6.15,0.24-9.15
		c3.53-8.22,7.1-16.43,10.69-24.75c9.34,3.45,19.22,2.82,29.05,1.51c7.11-0.95,14.16-2.39,21.22-3.75c1.54-0.3,2.22,0.03,2.61,1.49
		c0.6,2.27,1.41,4.48,1.9,6.77c0.36,1.7,0.72,3.52-0.68,5.07c-3.3,3.64-6.39,7.5-9.87,10.94c-12.14,12-25.36,22.69-39.56,32.2
		c-13.12,8.79-26.67,16.7-41.55,22.15c-11.46,4.2-23.21,6.9-35.52,6.18c-9.36-0.54-18.18-2.89-25.53-9.03
		c-9.68-8.08-15.08-18.73-17.84-30.86c-2.94-12.94-2.91-25.98-1.63-39.12c1.2-12.34,5.72-23.65,10.19-35.05
		c7.05,3.13,14.62,4.23,22.38,4.25c10.08,0.03,19.79-2.06,29.27-5.37c17.65-6.16,33.62-15.54,48.51-26.61
		c20.01-14.87,39.57-30.35,59.35-45.52c13.11-10.05,26.04-20.38,39.5-29.94c12.41-8.81,25.87-15.83,40.88-19.35
		c14.14-3.33,26.78-0.74,37.06,9.99c3.17,3.31,5.71,7.22,8.62,10.96c0.31-0.72,0.91-1.63,1.1-2.62c1.34-6.84,2.44-13.72,3.93-20.52
		c0.83-3.78-0.34-6.88-2.27-9.87c-4.51-7.01-10.7-11.95-18.58-14.7c-8.99-3.13-17.96-2.26-26.91,0.22
		c-13.93,3.85-26.58,10.49-38.83,17.96c-19.04,11.6-36.38,25.49-53.46,39.74c-20.38,16.99-41.53,32.93-64.57,46.22
		c-13.42,7.74-27.27,14.52-42.36,18.42c-9.54,2.47-19.2,3.71-28.96,1.43c-12.15-2.84-21.05-9.5-24.66-21.97
		c-1.94-6.7-1.92-13.54-0.94-20.35c2.24-15.63,7.85-30.15,15.41-43.88c4.01-7.29,8.84-14.12,13.23-21.2
		c4.84-7.81,9.61-15.66,14.37-23.51c0.51-0.83,0.72-1.84,1.07-2.77c-0.21-0.14-0.41-0.28-0.62-0.41c-1.12,1.02-2.33,1.97-3.36,3.08
		c-19.3,20.9-34.38,44.48-44.49,71.1c-6.02,15.85-9.72,32.19-7.76,49.33c1.1,9.6,4.1,18.54,10.54,25.91
		c2.92,3.34,6.49,6.09,9.58,8.94c-1.64,3.09-3.73,6.28-5.12,9.74c-9.09,22.68-13.93,46.15-12.49,70.7
		c0.77,13.15,4.08,25.55,11.16,36.8c5.97,9.49,13.38,17.4,24.11,21.53c12.81,4.93,25.94,4.66,39.13,1.96
		c14.67-3.01,28.12-9.1,41-16.57c1.7-0.98,3.39-1.98,5.19-3.03c0.07,0.46,0.15,0.68,0.12,0.87c-0.09,0.56-0.22,1.12-0.34,1.67
		c-3.4,15.67-5.41,31.42-3.57,47.5c1.53,13.35,5.72,25.62,13.68,36.56c8.25,11.36,19.1,18.24,33.11,20.2
		c11.8,1.65,23.3,0.27,34.65-2.94c16.27-4.6,31.1-12.29,44.98-21.78c18.67-12.77,36.66-26.37,51.19-44.02
		c5.59-6.79,10.49-13.83,12.21-22.66c1.46-7.47,3-14.92,4.38-22.4c0.23-1.23,0.63-1.8,1.8-2.21c2.75-0.97,5.49-2.02,8.14-3.22
		c9.89-4.49,17.48-11.2,20.65-21.99c1.6-5.46,3.06-10.95,4.6-16.43c0.37-1.31,0.78-2.6,1.29-4.28c4.29,6.95,10.3,10.82,17.44,13.01
		c7.48,2.29,14.96,4.63,22.54,6.54c7.86,1.99,15.83,3.54,23.78,5.19c2.94,0.61,3.41,0.29,4.61-2.43c2.5-5.66,4.87-11.39,7.44-17.01
		c1.86-4.07,2.28-8.32,1.36-12.54C503.9,337.69,502.52,332.06,500.55,326.68z M328.31,377.12c-0.62-0.15-1.25-0.31-1.82-0.58
		c-3.3-1.6-3.67-3.27-1.4-6.15c5.84-7.46,14.58-9.48,23.1-5.31c5.6,2.74,10,6.92,14.34,11.98
		C350.8,378.66,339.56,379.81,328.31,377.12z M487.27,225.45c-1.08-0.73-1.16-1.79-0.16-2.46c1.35-0.91,2.98-2.12,4.38-2
		c1.05,0.09,2.29,1.94,2.82,3.25c0.71,1.78,0.81,3.8,1.18,5.72c-0.28,0.15-0.56,0.29-0.83,0.44
		C492.19,228.75,489.72,227.12,487.27,225.45z M304.75,216.8c1.09-0.99,2.4-1.79,3.71-2.48c3.71-1.94,7.31-1.86,10.84,0.61
		c6.43,4.51,10.39,10.9,13.36,17.9c2.1,4.96,3.55,10.19,5.31,15.29c0.46,1.32,0.17,2.16-1.1,2.98c-6.69,4.32-13.31,8.75-20.6,13.57
		c-2.78-9.91-5.45-19.25-8.01-28.63c-1.53-5.62-2.92-11.28-4.26-16.95C303.84,218.39,304.22,217.27,304.75,216.8z M212.25,290.33
		c-0.55-0.13-1.11-0.26-1.64-0.47c-3.8-1.5-4.33-3.41-1.86-6.58c5.32-6.84,12.98-9,21.11-5.98c5.28,1.97,13.18,8.3,15.87,12.88
		C234.43,291.73,223.35,292.88,212.25,290.33z M480.75,343.89c-6.09-1.58-12.24-2.99-18.26-4.81c-4.6-1.4-9.15-3.08-13.51-5.09
		c-3.95-1.83-3.87-2.41-0.87-5.53c5.78-6.01,12.14-6.83,18.98-2.46c0.3,0.19,0.58,0.41,0.87,0.62c5.99,4.32,9.87,10.28,13.12,16.71
		C480.97,343.51,480.86,343.7,480.75,343.89z"/>
</g>
<g id="Layer_27">
	<path d="M132.33,357.4c-5.51,3.67-11.07,7.27-16.54,11.01c-1.13,0.77-1.97,1.97-2.94,2.98c0.15,0.25,0.31,0.5,0.46,0.75
		c1.23-0.16,2.5-0.16,3.67-0.52c10.19-3.15,20.35-6.39,30.53-9.56c6.2-1.93,11.08-5.65,15.09-10.71
		c7.34-9.28,13.02-19.53,18.03-30.19c2.21-4.7,2.14-4.75-3-6.15c-12.21-3.31-24.66-4.21-37.25-3.82c-4.79,0.15-9.51,0.68-14.02,2.43
		c-1.9,0.74-3.16,1.92-3.82,3.97c-2.09,6.5-4.34,12.95-6.51,19.42c-0.6,1.79-1.18,3.59-1.76,5.38c0.16,0.19,0.31,0.38,0.47,0.56
		c1.2-0.59,2.38-1.22,3.59-1.77c2.24-1.01,4.41-2.37,6.77-2.9c7.61-1.7,15.31-1.06,22.97-0.25c3.49,0.37,6.97,0.91,10.96,1.43
		c-0.98,0.74-1.46,1.14-1.98,1.48C148.81,346.43,140.58,351.92,132.33,357.4z"/>
</g>
<g id="Layer_26">
	<path d="M401.67,186.6c7.49,4.93,14.99,9.84,22.45,14.81c2.05,1.37,2.46,1.37,3.69-0.89c1.77-3.25,3.46-6.54,5.24-9.79
		c2.03-3.71,4.11-7.38,6.15-11.05c1.51,1.1,2.81,2.09,4.16,3.01c6.59,4.49,13.19,8.95,19.78,13.44c2.65,1.81,2.81,1.8,4.37-1.08
		c3.33-6.12,6.67-12.25,10.01-18.37c1.6-2.94,1.55-3.19-1.3-5.12c-7.13-4.84-14.26-9.65-21.39-14.49c-2.57-1.75-2.57-1.77-4.17,1.01
		c-3.83,6.65-7.64,13.31-11.52,20.07c-1.17-0.82-2.14-1.52-3.14-2.2c-7.07-4.79-14.18-9.52-21.19-14.4
		c-1.53-1.06-2.23-0.88-3.1,0.65c-3.71,6.49-7.5,12.93-11.23,19.4C398.72,184.61,398.76,184.68,401.67,186.6z"/>
</g>
<g id="Layer_25">
	<path d="M321.67,94.58c8.84,6.13,17.58,12.2,26.39,18.31c5.23-7.64,10.33-15.08,15.51-22.65c-8.76-6.1-17.34-12.07-26.07-18.16
		c-5.33,7.37-10.57,14.62-15.9,22.01c-8.6-5.98-17.07-11.87-25.83-17.96c-5.39,7.48-10.67,14.79-16.07,22.28
		c8.92,6.2,17.72,12.32,26.63,18.52C311.48,109.42,316.51,102.09,321.67,94.58z"/>
</g>
<g id="Layer_24">
	<path d="M223.69,148.1c-37.3,13.29-73.13,29.77-107.53,49.38c-0.43,0.24-1.08,0.47-1.2,0.84c-1.08,3.3-2.07,6.63-3.23,10.43
		c0.99-0.54,1.43-0.77,1.86-1.01c18.61-10.51,37.62-20.23,57.18-28.82c16.73-7.35,33.72-14.1,50.58-21.16
		c0.64-0.27,1.4-0.82,1.64-1.42c1.09-2.84,2.02-5.75,3.15-9.05C225.02,147.66,224.35,147.86,223.69,148.1z"/>
</g>
<g id="Layer_23">
	<path d="M301.01,447.01c15.68-6.9,31.64-13.18,47.47-19.76c0.87-0.36,2.06-0.81,2.35-1.53c1.19-2.87,2.08-5.87,3.23-9.25
		c-1.22,0.4-1.96,0.62-2.69,0.89c-6.86,2.56-13.77,5.03-20.58,7.73c-29.88,11.83-58.83,25.6-86.72,41.59
		c-0.48,0.28-1.14,0.59-1.29,1.03c-1.04,3.2-1.97,6.45-3.07,10.13c0.81-0.44,1.11-0.59,1.41-0.76
		C260.63,466.15,280.55,456.02,301.01,447.01z"/>
</g>
<g id="Layer_22">
	<path d="M421.2,444.1c-2.61-1.64-4.87-1.3-6.75,1.19c-1.45,1.91-2.49,4.13-3.7,6.21c-0.32,0.55-0.43,1.47-0.88,1.66
		c-2.65,1.12-2.71,3.68-3.28,5.85c-1.43,5.49-4.06,10.23-8.72,13.52c-6.45,4.55-12.91,9.11-19.63,13.25
		c-13.79,8.51-28.88,14.41-43.61,21.03c-3.87,1.74-7.68,3.6-11.52,5.4c0.1,0.29,0.2,0.58,0.3,0.87c0.57-0.1,1.14-0.18,1.7-0.32
		c6.98-1.7,13.96-3.38,20.93-5.11c5.11-1.26,10.54-1.83,15.23-4.01c12.4-5.75,24.35-12.39,35.52-20.38
		c5.21-3.73,8.32-8.64,9.52-14.87c0.29-1.5,0.76-2.97,1.15-4.48c5.9,2.97,12.08,3.37,18.24,3.89c0.47,0.04,1.32-0.26,1.42-0.57
		c1.07-3.43,3.1-7,2.77-10.32C429.37,451.5,425.96,447.1,421.2,444.1z M413,455.09c1.29-2.89,3.17-3.49,5.62-1.76
		c0.63,0.45,1.21,0.97,1.76,1.52c0.74,0.73,1.44,1.52,2.21,2.35C419.74,457.84,414.86,456.73,413,455.09z"/>
</g>
<g id="Layer_21">
	<path d="M398.55,194.75c-0.38-2.14-0.96-4.24-1.44-6.36c-0.26-0.03-0.53-0.07-0.79-0.1c-0.71,3.41-1.77,6.8-2,10.25
		c-0.15,2.32,0.66,4.8,1.44,7.07c1.85,5.37,3.88,10.68,5.99,15.96c0.6,1.49,0.31,2.35-0.85,3.28c-3.23,2.56-8.21,2.45-11.04-0.83
		c-1.7-1.97-3.05-4.51-3.72-7.02c-1.1-4.1-1.51-8.39-2.23-12.6c-0.92-5.37-2.64-10.45-5.79-15.62c-0.69,2.08-1.12,3.74-1.78,5.3
		c-1.1,2.62-1.03,5,0.1,7.72c2.03,4.87,3.38,9.94,2.77,15.38c-0.76,6.77-4.29,11.78-9.7,13.26c-4.42,1.21-7.19-0.07-8.27-4.52
		c-0.79-3.27-0.91-6.74-1.01-10.13c-0.13-4.12,0.19-8.25,0.07-12.37c-0.06-2.09-0.68-4.16-1.04-6.24c-1.78,2.84-3.02,5.63-4.21,8.45
		c-0.18,0.43-0.23,0.99-0.13,1.44c1.12,5.08,0.91,10.18,0.43,15.3c-0.33,3.56-0.23,7.1,1.09,10.53c2.12,5.5,7.73,8.53,13.45,7.05
		c6.01-1.55,9.17-5.92,10.91-11.52c0.48-1.54,0.69-3.17,0.95-4.39c1.58,2.68,2.92,5.73,4.95,8.21c4.59,5.6,12.32,5.14,15.98-1.06
		c3.82-6.48,4.97-13.46,1.55-20.61C401.83,205.46,399.54,200.35,398.55,194.75z"/>
</g>
<g id="Layer_20">
	<path d="M413.28,154.18c0.54,0.34,1.05,0.73,1.58,1.09c6.93,4.73,13.87,9.45,20.8,14.18c2.22,1.52,2.62,1.47,3.87-0.83
		c3.57-6.55,7.13-13.12,10.68-19.68c0.27-0.49,0.5-1.01,0.75-1.51c0.24-0.28,0.49-0.56,0.73-0.84c-0.97-0.58-1.97-1.11-2.91-1.73
		c-7.32-4.92-14.63-9.86-21.94-14.81c-2.3-1.55-2.33-1.59-3.75,0.89c-3.62,6.29-7.12,12.64-10.84,18.87
		C411.04,151.83,411.5,153.05,413.28,154.18z"/>
</g>
<g id="Layer_19">
	<path d="M130.3,223.94c8.82,6.53,17.38,12.87,26.07,19.3c5.44-7.45,10.76-14.73,16.19-22.16c-8.55-6.34-16.99-12.6-25.53-18.94
		C141.45,209.42,135.95,216.58,130.3,223.94z"/>
</g>
<g id="Layer_18">
	<path d="M201.13,150.37c0.23,0.28,0.46,0.57,0.68,0.85c12.1-5.21,22.93-12.54,33.2-20.75c10.39-8.31,19.68-17.67,26.58-29.36
		c2.28,1.88,4.33,3.58,6.4,5.28c4.71-7.51,4.53-8.84-2.24-14.09c-1.43-1.11-1.77-2.12-1.46-3.93c1.01-5.8,0.26-11.41-3.21-16.33
		c-2.4-3.4-5.01-3.67-8.43-1.33c-4.07,2.79-6.49,6.71-7.87,11.35c-1.77,5.97-0.77,8.53,4.62,11.71c2.62,1.55,5.27,3.06,8.14,4.72
		c-1.21,1.75-2.18,3.52-3.48,4.98c-8.63,9.71-17.67,19.01-27.86,27.1c-7.25,5.76-14.75,11.2-22.1,16.83
		C203.01,148.26,202.12,149.37,201.13,150.37z M251.1,84.01c-1.32-0.79-1.38-1.77-0.31-2.95c2.92-3.22,5.59-2.84,7.16,1.22
		c0.69,1.79,0.95,3.75,1.4,5.64c-0.25,0.14-0.51,0.28-0.76,0.42C256.09,86.9,253.57,85.49,251.1,84.01z"/>
</g>
<g id="Layer_17">
	<path d="M262.66,415.81c0.1-0.21,0.36-0.77,0.67-1.44c3.68,3.59,6.53,7.66,8.63,12.17c2.21,4.74,4.04,9.66,6.1,14.47
		c0.24,0.57,0.85,1.36,1.31,1.37c0.54,0.01,1.25-0.6,1.63-1.12c0.44-0.61,0.74-1.4,0.86-2.15c0.49-3.07,1.05-6.15,1.3-9.24
		c0.54-6.78,0.76-13.59,1.41-20.36c0.29-2.99,1.04-6,2.06-8.83c0.97-2.7,3.04-3.17,5.48-1.61c1,0.63,1.9,1.49,2.69,2.38
		c0.96,1.08,1.76,2.3,2.87,3.8c0.5-2,0.96-3.62,1.31-5.27c1.31-6.15,0.81-7.22-4.73-10.38c-0.43-0.25-0.87-0.47-1.32-0.68
		c-3.81-1.7-6.1-0.97-8.08,2.76c-2.51,4.72-3.37,9.91-3.81,15.14c-0.44,5.29-0.56,10.61-0.88,15.92c-0.11,1.87-0.38,3.72-0.58,5.58
		c-0.16-0.01-0.32-0.01-0.49-0.02c-0.22-0.65-0.45-1.29-0.67-1.94c-2.57-7.61-6.28-14.57-11.93-20.36
		c-3.96-4.06-8.48-7.3-13.96-9.01c-3-0.93-3.88-0.49-4.47,2.6c-0.54,2.84-0.63,5.76-1,8.63c-0.24,1.94,0.77,2.91,2.43,3.44
		C253.86,413.05,258.22,414.41,262.66,415.81z"/>
</g>
<g id="Layer_16">
	<path d="M164.21,117.88c4.46,1.58,8.99,2.95,13.64,4.44c0.1-0.26,0.31-0.77,0.59-1.44c3.75,3.54,6.51,7.52,8.57,11.92
		c2.29,4.89,4.21,9.95,6.34,14.92c0.23,0.53,0.77,1.36,1.1,1.33c0.59-0.05,1.34-0.53,1.65-1.05c0.56-0.96,1.1-2.06,1.21-3.15
		c0.66-6.58,1.1-13.19,1.8-19.76c0.59-5.57,1.09-11.19,2.27-16.66c0.94-4.37,4.14-5.01,7.46-1.92c1.13,1.05,2,2.4,2.98,3.61
		c0.33,0.41,0.65,0.83,1.18,1.51c0.54-2.05,1-3.76,1.42-5.47c1.37-5.59,0.94-6.62-3.98-9.68c-0.6-0.38-1.21-0.75-1.85-1.06
		c-4.03-1.97-6.51-1.16-8.59,2.85c-0.55,1.07-1.16,2.18-1.37,3.34c-0.96,5.45-2.02,10.89-2.61,16.38
		c-0.59,5.57-0.67,11.2-1.01,17.32c-0.61-0.57-0.76-0.65-0.81-0.76c-0.13-0.33-0.23-0.67-0.34-1.01c-2.1-6.41-4.97-12.42-9.22-17.7
		c-4.74-5.88-10.33-10.55-17.78-12.67c-2-0.57-3.16,0.09-3.44,1.95c-0.53,3.5-0.94,7.03-1.11,10.57
		C162.28,116.41,163.39,117.59,164.21,117.88z"/>
</g>
<g id="Layer_15">
	<path d="M469.79,390.28c-2.37-0.88-4.19-0.47-5.71,1.52c-1.11,1.45-2.09,3.06-2.86,4.72c-3.09,6.68-4.09,13.88-5.09,21.08
		c-0.53,3.81-1.33,7.57-2.01,11.36c-0.19-0.02-0.38-0.03-0.57-0.05c-0.11-0.38-0.26-0.76-0.34-1.15c-1.43-6.97-3.81-13.56-7.79-19.5
		c-3.83-5.71-8.52-10.51-14.92-13.35c-3.08-1.37-4.02-0.99-5.03,2.25c-0.74,2.37-1.2,4.83-1.65,7.28c-0.59,3.21-0.02,3.88,2.94,5.18
		c3.76,1.65,7.41,3.55,11.11,5.33c0.11,0.05,0.26,0.01,0.49,0.01c0.22-0.43,0.46-0.91,0.84-1.67c3.5,4.23,5.88,8.69,7.52,13.48
		c1.63,4.77,2.88,9.68,4.36,14.5c0.21,0.67,0.76,1.24,1.15,1.86c0.69-0.44,1.63-0.74,2.01-1.37c0.72-1.2,1.33-2.55,1.61-3.92
		c1.19-5.85,2.15-11.75,3.38-17.59c1.17-5.56,2.24-11.17,3.96-16.56c1.43-4.49,4.98-4.83,7.99-1.1c1.22,1.51,2.15,3.25,3.46,5.28
		c1.17-3.47,2.27-6.61,3.27-9.78c0.12-0.39-0.08-1-0.34-1.37C475.54,393.9,473.12,391.52,469.79,390.28z"/>
</g>
<g id="Layer_14">
	<path d="M346.7,283c-0.85,0.41-1.96,1.03-2.23,1.8c-1.03,2.99-1.76,6.09-2.69,9.47c0.67-0.26,0.99-0.35,1.28-0.5
		c22.88-12.21,46.46-22.8,71.15-30.83c0.54-0.17,1.19-0.61,1.4-1.09c1.23-2.86,2.35-5.77,3.67-9.08c-0.96,0.26-1.45,0.35-1.9,0.52
		c-12.14,4.45-24.45,8.5-36.36,13.49C369.36,271.67,358.11,277.52,346.7,283z"/>
</g>
<g id="Layer_13">
	<path d="M187.28,475.14c-2.2,0.11-4.39,0.57-6.43,0.85c1.2-3.34,2.43-6.75,3.61-10.02c1.49,0.71,2.92,1.39,4.35,2.07
		c-2.35-3.42-3.65-6.65-0.57-10.81c-2.83,1.11-4.63,2.25-5.31,4.72c-0.77,2.81-1.58,5.61-2.45,8.4c-0.53,1.69-1.21,3.34-1.82,5.01
		c-0.28-0.04-0.57-0.07-0.85-0.11c-0.07-0.81-0.33-1.65-0.18-2.41c0.44-2.18-0.09-4.11-1.83-5.35c-1.59-1.12-3.43-2.12-5.3-2.55
		c-2.61-0.6-5.35-0.73-8.05-0.87c-2.99-0.16-6,0.04-8.97-0.23c-1.1-0.1-2.48-0.9-3.04-1.8c-0.35-0.56,0.32-2.29,1.04-2.86
		c2.88-2.31,6.43-2.33,9.94-2.53c2.02-0.12,2.8,1.45,4.01,2.44c1.1,0.9,2.26,1.78,3.16,2.87c2.19,2.64,4.84,1.85,7.9,1.33
		c-0.88-0.72-1.52-1.15-2.05-1.69c-4.5-4.54-9.18-8.93-13.41-13.71c-3.05-3.44-4.98-7.66-5.14-12.41c-0.17-4.81,2.04-6.3,6.19-3.96
		c2.63,1.48,5.14,3.37,7.29,5.49c5.44,5.36,9.17,11.94,12.54,18.73c0.32,0.64,0.66,1.26,1,1.9c-1.37-8.14-4.97-15.13-10.58-21.05
		c-3-3.15-6.06-6.27-10.53-7.35c-5.03-1.21-9.37,1.94-9.76,7.09c-0.26,3.4,0.74,6.55,2.47,9.36c2.06,3.35,4.46,6.49,6.75,9.78
		c-2.04,0.28-4.16,0.47-6.23,0.87c-3.15,0.6-6.05,1.75-7.88,4.6c-1.55,2.41-0.53,5,2.24,5.61c1.23,0.27,2.54,0.27,3.81,0.21
		c5.71-0.28,11.41-0.58,16.91,1.46c2.59,0.96,3.48,2.39,3.46,4.98c-0.01,1.61,0.25,3.22,0.42,5.07c-1.76-0.49-3.73-1.04-5.69-1.58
		l0.01,0c0,0,0,0,0-0.01c0,0,0,0,0,0c-7.09-3.19-14.18-6.37-21.21-9.53c6.06,4.45,12.16,9.01,19.33,11.83
		c2.84,1.12,5.73,1.62,8.76,0.6c1.67-0.56,3.42-0.91,5.12-1.4c1.22-0.35,1.91,0.12,2.22,1.28c0.45,1.69,0.9,3.39,1.33,5.05
		c3.57-0.07,5.81-1.56,6.93-4.51C192.07,476.48,191.03,474.94,187.28,475.14z"/>
</g>
<g id="Layer_12">
	<path d="M208.94,167.55c-0.71,1.33-1.37,2.26-1.72,3.29c-2.18,6.46-4.64,12.85-6.29,19.44c-0.92,3.69-0.86,7.76-0.52,11.59
		c0.41,4.72,3.45,6.89,8.21,6.73c8.45-0.29,15.45-6.85,16.6-15.22c0.71-5.12-1.03-9.01-5.22-11.7c-2.61-1.68-5.46-3.05-8.36-4.15
		c-2-0.76-2.59-1.54-2.04-3.68C210.07,171.97,210.77,169.85,208.94,167.55z M219.66,194.44c-3.46,2.8-7.16,4.58-11.52,4.6
		c-2.68,0.01-3.71-0.96-3.57-3.63c0.17-3.15,0.71-6.28,1.13-9.69C211.51,187.31,216.38,189.42,219.66,194.44z"/>
</g>
<g id="Layer_11">
	<path d="M297.23,354.79c-0.33,1.33-0.96,2-2.24,2.11c-2.3,0.2-3.72-1.17-4.81-2.92c-2.92-4.71-3.28-9.83-1.64-14.95
		c2.47-7.67,5.3-15.23,7.95-22.84c0.43-1.23,0.71-2.51,1.06-3.77c-0.27-0.15-0.54-0.3-0.81-0.44c-0.69,0.91-1.6,1.72-2.04,2.73
		c-2.25,5.19-4.5,10.39-6.53,15.67c-2.87,7.44-5.11,15.04-4.17,23.19c0.57,4.99,2.26,9.4,6.84,12.09c3.18,1.87,5.84,1.21,7.46-2.08
		c1.08-2.19,1.81-4.62,2.25-7.03c0.55-3.03,0.9-6.15-0.73-9.21C298.77,349.77,297.86,352.24,297.23,354.79z"/>
</g>
<g id="Layer_10">
	<path d="M282.08,213.18c0.56-1.37,0.65-2.92,0.96-4.39c-0.25-0.11-0.51-0.22-0.76-0.33c-0.69,0.9-1.59,1.71-2.04,2.72
		c-4.03,9.18-8.08,18.35-11.89,27.62c-0.98,2.38-1.44,5.1-1.55,7.68c-0.18,4.34,0.95,8.37,4.68,11.16c2.62,1.96,5.53,1.57,7.07-1.3
		c1.36-2.53,2.29-5.33,3.12-8.1c0.54-1.82,0.55-3.79,0.8-5.69c-0.37-0.08-0.74-0.16-1.11-0.24c-1.03,1.91-2.18,3.77-3.05,5.75
		c-0.64,1.47-1.57,1.53-2.72,1c-2.18-1-3.21-2.89-3.81-5.12c-1.18-4.36,0.7-8.1,2.32-11.9
		C276.75,225.75,279.48,219.49,282.08,213.18z"/>
</g>
<g id="Layer_9">
	<path d="M76.43,266.72c-5.29,10.09-10.04,20.44-13.15,31.42c-1.46,5.16-1.01,10.38,2.98,14.59c3.18,3.35,6.89,3,8.73-1.18
		c1.55-3.53,2.29-7.42,3.29-11.17c0.15-0.56-0.24-1.27-0.38-1.9c-0.19-0.04-0.39-0.07-0.58-0.11c-1.03,1.9-2.21,3.73-3.05,5.71
		c-0.69,1.61-1.9,1.75-2.84,0.94c-1.39-1.2-3.01-2.71-3.41-4.35c-0.56-2.31-0.46-4.95,0.04-7.31c0.52-2.46,1.85-4.75,2.82-7.12
		c2.55-6.24,5.13-12.47,7.63-18.74c0.32-0.8,0.2-1.78,0.32-3.1c-0.77,0.5-1.06,0.6-1.23,0.8C77.16,265.67,76.72,266.16,76.43,266.72
		z"/>
</g>
<g id="Layer_8">
	<path d="M501.5,272.47c2.23-5.38,4.47-10.77,6.6-16.19c0.41-1.04,0.38-2.25,0.56-3.38c-0.24-0.09-0.49-0.19-0.73-0.28
		c-0.76,1.05-1.7,2.02-2.23,3.17c-2.97,6.39-5.98,12.76-8.69,19.26c-1.69,4.06-3.26,8.25-4.15,12.53
		c-1.05,5.03-0.44,10.01,3.79,13.74c2.99,2.64,6.26,2.26,7.9-1.31c1.5-3.25,2.37-6.81,3.36-10.27c0.28-0.99,0.04-2.13,0.04-3.21
		c-0.27-0.06-0.53-0.12-0.8-0.18c-1,1.83-2.04,3.65-2.99,5.5c-0.99,1.92-1.72,2.32-3.39,0.98c-1.26-1.02-2.68-2.51-2.93-3.97
		c-0.43-2.58-0.45-5.41,0.16-7.93C498.73,278,500.33,275.29,501.5,272.47z"/>
</g>
<g id="Layer_7">
	<path d="M262.89,147.03c0.04,4.25,1.53,8.1,5.27,10.69c3.27,2.27,6.51,1.63,7.72-2.13c1.2-3.74,1.57-7.75,2.2-11.66
		c0.11-0.67-0.29-1.41-0.45-2.12c-0.23-0.04-0.46-0.07-0.69-0.11c-0.82,1.98-1.83,3.91-2.4,5.96c-0.5,1.81-1.52,1.88-2.87,1.38
		c-2.7-0.99-3.81-3.27-4.51-5.83c-0.78-2.87-0.25-5.64,0.59-8.41c2.14-7.07,4.33-14.14,6.37-21.24c0.48-1.69,0.43-3.53,0.62-5.3
		c-0.3-0.08-0.61-0.17-0.91-0.25c-0.68,1.27-1.58,2.47-2,3.82c-2.65,8.41-5.33,16.81-7.69,25.3
		C263.25,140.31,262.86,143.73,262.89,147.03z"/>
</g>
<g id="Layer_6">
	<path d="M239.4,414.06c0.43-1.04,0.44-2.26,0.64-3.39c-0.29-0.12-0.57-0.24-0.86-0.36c-0.72,1.01-1.6,1.93-2.12,3.03
		c-2.64,5.59-5.37,11.16-7.7,16.88c-2.03,4.99-4,10.08-5.2,15.31c-1.12,4.86-0.25,9.71,3.74,13.36c2.97,2.72,6.02,2.32,8.01-1.09
		c2.14-3.68,3.34-7.68,3.4-11.98c0.01-0.51-0.15-1.03-0.23-1.54c-0.22-0.07-0.43-0.14-0.65-0.21c-0.99,1.83-2.15,3.58-2.91,5.5
		c-0.77,1.94-1.87,1.88-3.31,1.04c-2.54-1.48-3.32-3.94-3.62-6.65c-0.44-3.89,1.36-7.2,2.78-10.6
		C234.04,426.91,236.77,420.51,239.4,414.06z"/>
</g>
<g id="Layer_5">
	<path d="M474.63,210.31c0.41-1.03,0.35-2.24,0.51-3.37c-0.24-0.1-0.47-0.19-0.71-0.29c-0.72,0.98-1.64,1.87-2.11,2.96
		c-4.14,9.59-8.37,19.15-12.18,28.88c-1.02,2.6-0.96,5.74-0.9,8.62c0.08,3.49,1.66,6.46,4.49,8.62c2.63,2,5.37,1.58,7.13-1.22
		c2.39-3.82,3.49-8.07,3.72-12.55c0.02-0.45-0.16-0.92-0.25-1.38c-0.22-0.07-0.44-0.14-0.65-0.22c-1.04,1.9-2.2,3.74-3.06,5.72
		c-0.67,1.54-1.56,1.67-2.85,1.02c-2.55-1.29-3.51-3.57-3.9-6.23c-0.68-4.61,1.59-8.43,3.25-12.42
		C469.64,222.4,472.19,216.38,474.63,210.31z"/>
</g>
<g id="Layer_4">
	<path d="M389.78,139.64c3.64,2.58,6.96,1.71,8.17-2.56c1.01-3.58,1.22-7.39,1.67-11.11c0.09-0.74-0.36-1.54-0.56-2.32
		c-0.23-0.03-0.46-0.05-0.69-0.08c-0.67,1.74-1.39,3.46-1.98,5.23c-0.95,2.83-2.36,3.32-4.71,1.35c-0.9-0.75-1.69-1.76-2.22-2.81
		c-1.55-3.07-1.57-6.27-0.6-9.55c1.89-6.41,3.8-12.82,5.52-19.27c0.53-1.97,0.48-4.1,0.69-6.15c-0.3-0.09-0.6-0.18-0.9-0.27
		c-0.58,1.05-1.36,2.04-1.71,3.16c-2.07,6.73-4.22,13.44-5.98,20.24c-1.06,4.1-1.89,8.36-2.04,12.58
		C384.27,132.62,385.82,136.83,389.78,139.64z"/>
</g>
<g id="Layer_3">
	<path d="M144.15,163.02c3.44,2.4,6.47,1.46,7.99-2.42c1.51-3.85,1.83-7.88,1.57-11.97c-0.04-0.57-0.33-1.12-0.5-1.67
		c-0.23-0.03-0.45-0.05-0.68-0.08c-0.74,2.02-1.64,3.99-2.17,6.06c-0.46,1.79-1.58,2.13-2.81,1.36c-1.44-0.91-2.93-2.09-3.78-3.51
		c-1.58-2.64-1.83-5.65-0.96-8.66c1.83-6.35,3.78-12.66,5.48-19.04c0.62-2.33,0.68-4.82,0.99-7.23c-0.36-0.12-0.73-0.24-1.09-0.35
		c-0.6,1.22-1.38,2.38-1.78,3.66c-1.93,6.25-3.87,12.5-5.57,18.81c-1,3.69-1.92,7.48-2.21,11.27
		C138.23,154.59,139.32,159.66,144.15,163.02z"/>
</g>
<g id="Layer_2">
	<path d="M169.95,470.19c-1.45,0.47-2.64,0.85-3.92,1.27c-0.6-1.48-1.14-2.82-1.68-4.12c-4.55,1.38-4.77,2.14-1.95,5.94
		c1.1-0.43,2.21-0.86,3.27-1.28c0.91,1.63,1.75,3.14,2.6,4.65c1-0.71,2-1.42,3.2-2.27C171.01,473.08,170.49,471.65,169.95,470.19z"
		/>
</g>
</svg>
